<svg width="24" height="24" viewBox="0 0 24 24" fill="none" xmlns="http://www.w3.org/2000/svg">
<g clip-path="url(#clip0_2780_3287)">
<path d="M2.57146 3.42858C2.11681 3.42858 1.68077 3.60919 1.35928 3.93068C1.03779 4.25217 0.857178 4.6882 0.857178 5.14286V21.4286C0.857178 21.8832 1.03779 22.3193 1.35928 22.6408C1.68077 22.9622 2.11681 23.1429 2.57146 23.1429H21.4286C21.8833 23.1429 22.3193 22.9622 22.6408 22.6408C22.9623 22.3193 23.1429 21.8832 23.1429 21.4286V5.14286C23.1429 4.6882 22.9623 4.25217 22.6408 3.93068C22.3193 3.60919 21.8833 3.42858 21.4286 3.42858H18M6.00003 0.857147V6M18 0.857147V6M6.00003 3.42858H14.5715" stroke="#6A6B6C" stroke-width="1.71429" stroke-linecap="round" stroke-linejoin="round"/>
<path d="M10.608 7.82057C10.3807 7.82057 10.1626 7.91088 10.0019 8.07162C9.84114 8.23237 9.75084 8.45039 9.75084 8.67771V11.088H7.33712C7.1098 11.088 6.89178 11.1783 6.73103 11.3391C6.57029 11.4998 6.47998 11.7178 6.47998 11.9451V14.7309C6.47998 14.9582 6.57029 15.1762 6.73103 15.3369C6.89178 15.4977 7.1098 15.588 7.33712 15.588H9.74912V17.9983C9.74912 18.2256 9.83943 18.4436 10.0002 18.6044C10.1609 18.7651 10.3789 18.8554 10.6063 18.8554H13.392C13.5045 18.8554 13.616 18.8333 13.72 18.7902C13.824 18.7471 13.9185 18.684 13.9981 18.6044C14.0777 18.5248 14.1408 18.4303 14.1839 18.3263C14.227 18.2223 14.2491 18.1108 14.2491 17.9983V15.588H16.6594C16.8867 15.588 17.1048 15.4977 17.2655 15.3369C17.4262 15.1762 17.5166 14.9582 17.5166 14.7309V11.9451C17.5166 11.7178 17.4262 11.4998 17.2655 11.3391C17.1048 11.1783 16.8867 11.088 16.6594 11.088H14.2508V8.67771C14.2508 8.45039 14.1605 8.23237 13.9998 8.07162C13.839 7.91088 13.621 7.82057 13.3937 7.82057H10.608Z" stroke="#6A6B6C" stroke-width="1.71429" stroke-linecap="round" stroke-linejoin="round"/>
</g>
<defs>
<clipPath id="clip0_2780_3287">
<rect width="24" height="24" fill="white"/>
</clipPath>
</defs>
</svg>
