<svg width="675" height="672" viewBox="0 0 675 672" fill="none" xmlns="http://www.w3.org/2000/svg">
<g id="No Upcoming Trips">
<g id="Group 3">
<mask id="mask0_2515_10659" style="mask-type:luminance" maskUnits="userSpaceOnUse" x="63" y="145" width="564" height="324">
<path id="Clip 2" fill-rule="evenodd" clip-rule="evenodd" d="M202.784 202.783H130.707C121.341 202.783 113.681 210.524 113.681 219.987C113.681 229.45 121.341 237.191 130.707 237.191H167.388H178.137C187.503 237.191 195.163 244.934 195.163 254.397C195.163 259.126 193.244 263.436 190.157 266.543C187.082 269.665 182.815 271.603 178.137 271.603H155.204H142.542H80.7642C71.3986 271.603 63.7383 279.346 63.7383 288.807C63.7383 298.267 71.3986 306.011 80.7642 306.011H124.991C111.639 337.717 104.245 372.604 104.245 409.243C104.245 422.535 105.221 435.599 107.094 448.364C107.875 453.698 108.819 458.986 109.922 464.216C142.044 459.252 176.118 455.257 211.691 452.344L214.368 454.811L216.887 451.932C259.625 448.572 304.481 446.782 350.747 446.782C449.044 446.782 541.027 454.856 619.674 468.895C622.706 455.616 624.75 441.953 625.716 427.984C626.156 421.79 626.373 415.539 626.373 409.243C626.373 263.539 509.497 145.433 365.311 145.433C303.859 145.433 247.379 166.889 202.784 202.783Z" fill="white"/>
</mask>
<g mask="url(#mask0_2515_10659)">
<path id="Fill 1" fill-rule="evenodd" clip-rule="evenodd" d="M51.29 481.434H638.82V132.896H51.29V481.434Z" fill="#F1F2F7"/>
</g>
</g>
<g id="Group 6">
<mask id="mask1_2515_10659" style="mask-type:luminance" maskUnits="userSpaceOnUse" x="1" y="270" width="46" height="36">
<path id="Clip 5" fill-rule="evenodd" clip-rule="evenodd" d="M18.745 270.806C9.25988 270.806 1.5 278.707 1.5 288.358C1.5 298.009 9.25988 305.91 18.745 305.91H29.0641C38.5517 305.91 46.3116 298.009 46.3116 288.358C46.3116 278.707 38.5517 270.806 29.0641 270.806H18.745Z" fill="white"/>
</mask>
<g mask="url(#mask1_2515_10659)">
<path id="Fill 4" fill-rule="evenodd" clip-rule="evenodd" d="M-10.9482 318.449H58.7587V258.27H-10.9482V318.449Z" fill="#F1F2F7"/>
</g>
</g>
<g id="Group 9">
<mask id="mask2_2515_10659" style="mask-type:luminance" maskUnits="userSpaceOnUse" x="109" y="447" width="565" height="225">
<path id="Clip 8" fill-rule="evenodd" clip-rule="evenodd" d="M216.507 452.279L213.985 455.14L211.309 452.688C175.746 455.584 141.682 459.548 109.564 464.485C134.587 583.043 239.396 672 364.891 672C423.652 672 477.871 652.487 521.505 619.572H567.952C577.313 619.572 584.973 611.876 584.973 602.476C584.973 597.782 583.054 593.494 579.969 590.407C576.892 587.306 572.625 585.38 567.952 585.38H547.752C538.389 585.38 530.729 577.687 530.729 568.284C530.729 563.588 532.648 559.302 535.733 556.213C538.81 553.111 543.077 551.188 547.752 551.188H656.478C665.841 551.188 673.499 543.495 673.499 534.09C673.499 529.393 671.579 525.108 668.495 522.021C665.408 518.92 661.161 516.994 656.478 516.994H603.164C609.973 501.756 615.376 485.753 619.197 469.137C540.568 455.188 448.607 447.161 350.332 447.161C304.079 447.161 259.23 448.939 216.507 452.279Z" fill="white"/>
</mask>
<g mask="url(#mask2_2515_10659)">
<path id="Fill 7" fill-rule="evenodd" clip-rule="evenodd" d="M97.1162 684.539H685.943V434.625H97.1162V684.539Z" fill="#E8EBF2"/>
</g>
</g>
<g id="Group 12">
<mask id="mask3_2515_10659" style="mask-type:luminance" maskUnits="userSpaceOnUse" x="215" y="416" width="409" height="53">
<path id="Clip 11" fill-rule="evenodd" clip-rule="evenodd" d="M573.534 449.598L547.249 425.333L519.123 446.36L507.332 429.999L460.788 446.36L353.566 429.999L291.241 447.331C310.298 446.689 329.662 446.36 349.282 446.36C447.446 446.36 539.31 454.587 617.855 468.895C620.877 455.36 622.921 441.438 623.885 427.203L614.987 416.238L573.534 449.598ZM215.602 451.609C240.158 449.638 265.415 448.199 291.241 447.331L245.2 417.071L215.602 451.609Z" fill="white"/>
</mask>
<g mask="url(#mask3_2515_10659)">
<path id="Fill 10" fill-rule="evenodd" clip-rule="evenodd" d="M203.153 481.433H636.332V403.702H203.153V481.433Z" fill="#E0E2EE"/>
</g>
</g>
<g id="Group 15">
<mask id="mask4_2515_10659" style="mask-type:luminance" maskUnits="userSpaceOnUse" x="210" y="451" width="6" height="3">
<path id="Clip 14" fill-rule="evenodd" clip-rule="evenodd" d="M210.621 451.706L213.185 453.855L215.6 451.345C213.937 451.455 212.272 451.575 210.621 451.706Z" fill="white"/>
</mask>
<g mask="url(#mask4_2515_10659)">
<path id="Fill 13" fill-rule="evenodd" clip-rule="evenodd" d="M198.173 466.391H228.047V438.809H198.173V466.391Z" fill="#F1F2F7"/>
</g>
</g>
<g id="Group 18">
<mask id="mask5_2515_10659" style="mask-type:luminance" maskUnits="userSpaceOnUse" x="106" y="406" width="105" height="58">
<path id="Clip 17" fill-rule="evenodd" clip-rule="evenodd" d="M106.061 448.004C106.842 453.348 107.786 458.644 108.884 463.882C140.996 458.909 175.06 454.91 210.621 451.991L161.102 406.21L106.061 448.004Z" fill="white"/>
</mask>
<g mask="url(#mask5_2515_10659)">
<path id="Fill 16" fill-rule="evenodd" clip-rule="evenodd" d="M93.6123 476.42H223.068V393.674H93.6123V476.42Z" fill="#E0E2EE"/>
</g>
</g>
<g id="Group 21">
<mask id="mask6_2515_10659" style="mask-type:luminance" maskUnits="userSpaceOnUse" x="272" y="545" width="195" height="19">
<path id="Clip 20" fill-rule="evenodd" clip-rule="evenodd" d="M272.156 554.697C272.156 559.541 315.626 563.473 369.251 563.473C422.873 563.473 466.342 559.541 466.342 554.697C466.342 549.853 422.873 545.921 369.251 545.921C315.626 545.921 272.156 549.853 272.156 554.697Z" fill="white"/>
</mask>
<g mask="url(#mask6_2515_10659)">
<path id="Fill 19" fill-rule="evenodd" clip-rule="evenodd" d="M259.714 576.012H478.793V533.385H259.714V576.012Z" fill="#D8DBEA"/>
</g>
</g>
<g id="Group 24">
<mask id="mask7_2515_10659" style="mask-type:luminance" maskUnits="userSpaceOnUse" x="601" y="584" width="36" height="36">
<path id="Clip 23" fill-rule="evenodd" clip-rule="evenodd" d="M601.479 601.791C601.479 611.444 609.322 619.343 618.906 619.343C628.491 619.343 636.333 611.444 636.333 601.791C636.333 592.139 628.491 584.238 618.906 584.238C609.322 584.238 601.479 592.139 601.479 601.791Z" fill="white"/>
</mask>
<g mask="url(#mask7_2515_10659)">
<path id="Fill 22" fill-rule="evenodd" clip-rule="evenodd" d="M589.031 631.881H648.78V571.702H589.031V631.881Z" fill="#E1E3EF"/>
</g>
</g>
<g id="Group 47">
<path id="Fill 25" fill-rule="evenodd" clip-rule="evenodd" d="M366.683 341.594C358.577 341.594 352.005 334.974 352.005 326.81C352.005 318.648 358.577 312.031 366.683 312.031C374.789 312.031 381.361 318.648 381.361 326.81C381.361 334.974 374.789 341.594 366.683 341.594ZM366.681 305.909C355.219 305.909 345.926 315.267 345.926 326.811C345.926 338.361 355.219 347.719 366.681 347.719C378.143 347.719 387.439 338.361 387.439 326.811C387.439 315.267 378.143 305.909 366.681 305.909Z" fill="#D8DBEA"/>
<path id="Fill 27" fill-rule="evenodd" clip-rule="evenodd" d="M422.934 522.806H310.434C299.231 522.806 290.145 513.659 290.145 502.372V398.172C290.145 357.489 323.196 324.202 363.586 324.202H369.78C410.175 324.202 443.221 357.489 443.221 398.172V502.372C443.221 513.659 434.139 522.806 422.934 522.806Z" fill="#D8DBEA"/>
<path id="Fill 29" fill-rule="evenodd" clip-rule="evenodd" d="M452.439 497.981H451.339C446.873 497.981 443.221 494.3 443.221 489.804V431.681C443.221 427.182 446.873 423.504 451.339 423.504H462.345C466.809 423.504 470.461 427.182 470.461 431.681V479.827C470.461 489.811 462.35 497.981 452.439 497.981Z" fill="#04BD4B"/>
<path id="Fill 31" fill-rule="evenodd" clip-rule="evenodd" d="M282.028 497.981H280.928C271.012 497.981 262.901 489.811 262.901 479.827V431.681C262.901 427.182 266.554 423.504 271.02 423.504H282.028C286.492 423.504 290.144 427.182 290.144 431.681V489.804C290.144 494.3 286.492 497.981 282.028 497.981Z" fill="#04BD4B"/>
<path id="Fill 33" fill-rule="evenodd" clip-rule="evenodd" d="M414.68 494.681L365.385 510.393L316.087 494.681V460.74H414.68V494.681Z" fill="#BEC0D6"/>
<path id="Fill 35" fill-rule="evenodd" clip-rule="evenodd" d="M336.035 503.711L333.723 506.033C331.801 507.961 328.689 507.961 326.764 506.033L324.454 503.711V482.004H336.035V503.711Z" fill="#04BD4B"/>
<path id="Fill 37" fill-rule="evenodd" clip-rule="evenodd" d="M332.585 499.891C332.585 501.195 331.537 502.248 330.245 502.248C328.95 502.248 327.902 501.195 327.902 499.891C327.902 498.587 328.95 497.534 330.245 497.534C331.537 497.534 332.585 498.587 332.585 499.891Z" fill="#F7FFF6"/>
<path id="Fill 39" fill-rule="evenodd" clip-rule="evenodd" d="M402.197 503.711L399.884 506.033C397.962 507.961 394.85 507.961 392.926 506.033L390.615 503.711V482.004H402.197V503.711Z" fill="#04BD4B"/>
<path id="Fill 41" fill-rule="evenodd" clip-rule="evenodd" d="M398.746 499.891C398.746 501.195 397.698 502.248 396.406 502.248C395.112 502.248 394.063 501.195 394.063 499.891C394.063 498.587 395.112 497.534 396.406 497.534C397.698 497.534 398.746 498.587 398.746 499.891Z" fill="#F7FFF6"/>
<path id="Fill 43" fill-rule="evenodd" clip-rule="evenodd" d="M435.873 401.993V413.046V435.992L305.924 373.305C314.563 351.064 336.149 335.229 361.187 335.229H372.188C404.826 335.229 435.873 369.093 435.873 401.993Z" fill="white"/>
<path id="Fill 45" fill-rule="evenodd" clip-rule="evenodd" d="M305.918 407.771V396.718V373.772L435.867 436.462C427.23 458.7 405.644 474.535 380.604 474.535H369.605C336.965 474.535 305.918 440.672 305.918 407.771Z" fill="#04BD4B"/>
</g>
<g id="Bee">
<path id="Stroke 3" d="M408.485 105.313C322.246 112.666 290.551 186.187 316.516 229.043C334.838 259.28 365.885 300.145 423.759 290.343C481.63 280.538 486.506 226.594 456.028 219.256C425.55 211.921 316.97 246.142 329.241 325.201C338.099 382.244 414.878 398.687 414.878 398.687" stroke="#D7DAE9" stroke-width="2" stroke-dasharray="7"/>
<path id="Fill 5" fill-rule="evenodd" clip-rule="evenodd" d="M458.329 60.1791C458.329 60.1791 470.686 27.6663 471.989 15.0185C472.674 8.40958 461.801 -9.991 449.075 7.02954C436.349 24.0501 442.154 44.9194 458.329 60.1791Z" fill="#D8DBEA"/>
<path id="Fill 7_2" fill-rule="evenodd" clip-rule="evenodd" d="M414.48 24.7706C400.004 19.8398 393.45 23.6842 390.658 31.3579C387.863 39.034 391.764 53.6451 413.598 56.9758C435.435 60.3065 457.083 60.1787 457.083 60.1787C457.083 60.1787 428.957 29.7015 414.48 24.7706Z" fill="#D8DBEA"/>
<path id="Fill 9" fill-rule="evenodd" clip-rule="evenodd" d="M455.88 66.6212C456.208 65.2622 456.643 63.9596 457.127 62.6865C454.454 63.1117 451.735 63.7089 448.998 64.5175C446.029 65.3924 443.258 66.5401 440.652 67.855C439.521 70.0079 438.604 72.3083 438.009 74.7782C434.341 89.9838 443.001 105.31 457.552 110.328C459.128 110.014 460.711 109.65 462.297 109.183C466.728 107.876 470.816 106.145 474.511 104.14C460.301 97.8606 452.123 82.1905 455.88 66.6212Z" fill="#D8DBEA"/>
<path id="Fill 11" fill-rule="evenodd" clip-rule="evenodd" d="M435.105 74.5521C435.453 73.0499 435.924 71.6135 436.447 70.21C423.858 78.3327 416.809 90.9392 417.971 98.2907C409.927 101.773 404.804 104.707 404.804 104.707C404.804 104.707 410.873 104.241 419.717 102.529C424.454 109.501 437.585 114.17 452.105 112.495C438.952 105.645 431.528 90.0541 435.105 74.5521Z" fill="#D8DBEA"/>
<path id="Fill 13_2" fill-rule="evenodd" clip-rule="evenodd" d="M476.792 80.0635C473.457 79.2575 471.39 75.8835 472.193 72.5045C472.993 69.1486 476.364 67.069 479.696 67.875C483.046 68.6862 485.093 72.073 484.295 75.4314C483.489 78.808 480.145 80.8721 476.792 80.0635ZM491.401 75.5494C488.717 66.1868 476.378 61.3518 461.822 63.0075C461.213 64.4582 460.695 65.9887 460.326 67.5738C457.085 81.4708 464.572 95.4498 477.27 100.298C487.865 93.5094 493.815 83.8963 491.401 75.5494Z" fill="#D8DBEA"/>
</g>
</g>
</svg>
