<svg width="225" height="236" viewBox="0 0 225 236" fill="none" xmlns="http://www.w3.org/2000/svg">
<path d="M112.5 222.206C174.356 222.206 224.5 176.895 224.5 121.001C224.5 65.1068 174.356 19.7959 112.5 19.7959C50.6441 19.7959 0.5 65.1068 0.5 121.001C0.5 176.895 50.6441 222.206 112.5 222.206Z" fill="url(#paint0_linear_2518_11265)"/>
<g filter="url(#filter0_d_2518_11265)">
<path d="M176.713 77.8203H48.286C44.1623 77.8203 40.8193 80.841 40.8193 84.5673V226.254C40.8193 229.98 44.1623 233.001 48.286 233.001H176.713C180.836 233.001 184.179 229.98 184.179 226.254V84.5673C184.179 80.841 180.836 77.8203 176.713 77.8203Z" fill="white"/>
</g>
<path d="M97.5664 98.0605H58.7398C56.2655 98.0605 54.2598 99.873 54.2598 102.109C54.2598 104.344 56.2655 106.157 58.7398 106.157H97.5664C100.041 106.157 102.046 104.344 102.046 102.109C102.046 99.873 100.041 98.0605 97.5664 98.0605Z" fill="#04BD4B" fill-opacity="0.5"/>
<path d="M124.446 115.603H58.7398C56.2655 115.603 54.2598 117.415 54.2598 119.651C54.2598 121.886 56.2655 123.699 58.7398 123.699H124.446C126.921 123.699 128.926 121.886 128.926 119.651C128.926 117.415 126.921 115.603 124.446 115.603Z" fill="#DFEAFB"/>
<path d="M97.5664 134.495H58.7398C56.2655 134.495 54.2598 136.308 54.2598 138.543C54.2598 140.779 56.2655 142.592 58.7398 142.592H97.5664C100.041 142.592 102.046 140.779 102.046 138.543C102.046 136.308 100.041 134.495 97.5664 134.495Z" fill="#04BD4B" fill-opacity="0.5"/>
<path d="M124.446 152.037H58.7398C56.2655 152.037 54.2598 153.85 54.2598 156.085C54.2598 158.321 56.2655 160.133 58.7398 160.133H124.446C126.921 160.133 128.926 158.321 128.926 156.085C128.926 153.85 126.921 152.037 124.446 152.037Z" fill="#DFEAFB"/>
<path d="M97.5664 170.929H58.7398C56.2655 170.929 54.2598 172.741 54.2598 174.977C54.2598 177.213 56.2655 179.025 58.7398 179.025H97.5664C100.041 179.025 102.046 177.213 102.046 174.977C102.046 172.741 100.041 170.929 97.5664 170.929Z" fill="#04BD4B" fill-opacity="0.5"/>
<path d="M124.446 188.471H58.7398C56.2655 188.471 54.2598 190.283 54.2598 192.519C54.2598 194.755 56.2655 196.567 58.7398 196.567H124.446C126.921 196.567 128.926 194.755 128.926 192.519C128.926 190.283 126.921 188.471 124.446 188.471Z" fill="#DFEAFB"/>
<g filter="url(#filter1_d_2518_11265)">
<path d="M176.713 9H48.286C44.1623 9 40.8193 12.0207 40.8193 15.747V56.2289C40.8193 59.9552 44.1623 62.9759 48.286 62.9759H176.713C180.836 62.9759 184.179 59.9552 184.179 56.2289V15.747C184.179 12.0207 180.836 9 176.713 9Z" fill="#04BD4B"/>
</g>
<path d="M97.5664 23.8428H58.7398C56.2655 23.8428 54.2598 25.6552 54.2598 27.891C54.2598 30.1267 56.2655 31.9392 58.7398 31.9392H97.5664C100.041 31.9392 102.046 30.1267 102.046 27.891C102.046 25.6552 100.041 23.8428 97.5664 23.8428Z" fill="#04BD4B" fill-opacity="0.5"/>
<path d="M124.446 41.3848H58.7398C56.2655 41.3848 54.2598 43.1972 54.2598 45.433C54.2598 47.6687 56.2655 49.4812 58.7398 49.4812H124.446C126.921 49.4812 128.926 47.6687 128.926 45.433C128.926 43.1972 126.921 41.3848 124.446 41.3848Z" fill="white"/>
<defs>
<filter id="filter0_d_2518_11265" x="34.8193" y="68.8203" width="155.36" height="167.181" filterUnits="userSpaceOnUse" color-interpolation-filters="sRGB">
<feFlood flood-opacity="0" result="BackgroundImageFix"/>
<feColorMatrix in="SourceAlpha" type="matrix" values="0 0 0 0 0 0 0 0 0 0 0 0 0 0 0 0 0 0 127 0" result="hardAlpha"/>
<feOffset dy="-3"/>
<feGaussianBlur stdDeviation="3"/>
<feColorMatrix type="matrix" values="0 0 0 0 0.788235 0 0 0 0 0.803922 0 0 0 0 0.85098 0 0 0 0.349 0"/>
<feBlend mode="normal" in2="BackgroundImageFix" result="effect1_dropShadow_2518_11265"/>
<feBlend mode="normal" in="SourceGraphic" in2="effect1_dropShadow_2518_11265" result="shape"/>
</filter>
<filter id="filter1_d_2518_11265" x="34.8193" y="0" width="155.36" height="65.9756" filterUnits="userSpaceOnUse" color-interpolation-filters="sRGB">
<feFlood flood-opacity="0" result="BackgroundImageFix"/>
<feColorMatrix in="SourceAlpha" type="matrix" values="0 0 0 0 0 0 0 0 0 0 0 0 0 0 0 0 0 0 127 0" result="hardAlpha"/>
<feOffset dy="-3"/>
<feGaussianBlur stdDeviation="3"/>
<feColorMatrix type="matrix" values="0 0 0 0 0.788235 0 0 0 0 0.803922 0 0 0 0 0.85098 0 0 0 0.349 0"/>
<feBlend mode="normal" in2="BackgroundImageFix" result="effect1_dropShadow_2518_11265"/>
<feBlend mode="normal" in="SourceGraphic" in2="effect1_dropShadow_2518_11265" result="shape"/>
</filter>
<linearGradient id="paint0_linear_2518_11265" x1="112.5" y1="19.7959" x2="112.5" y2="222.206" gradientUnits="userSpaceOnUse">
<stop offset="1" stop-color="#04BD4B" stop-opacity="0.1"/>
</linearGradient>
</defs>
</svg>
