<svg width="24" height="24" viewBox="0 0 24 24" fill="none" xmlns="http://www.w3.org/2000/svg">
<path fill-rule="evenodd" clip-rule="evenodd" d="M5.25001 17.9055V19.5C5.25001 19.6989 5.32903 19.8897 5.46968 20.0303C5.61034 20.171 5.8011 20.25 6.00001 20.25H16.5C17.0968 20.25 17.669 20.013 18.091 19.591C18.513 19.169 18.75 18.5967 18.75 18V17.3985C18.0662 17.7938 17.2899 18.0013 16.5 18H6.00001C5.74051 18 5.49001 17.967 5.25001 17.9055ZM3.00001 15V4.5C2.99869 4.07113 3.08994 3.64702 3.26752 3.25664C3.44511 2.86626 3.70485 2.51881 4.02901 2.238C4.57491 1.76134 5.2753 1.49909 6.00001 1.5H16.5C17.6935 1.5 18.8381 1.97411 19.682 2.81802C20.5259 3.66194 21 4.80653 21 6V18C21 19.1935 20.5259 20.3381 19.682 21.182C18.8381 22.0259 17.6935 22.5 16.5 22.5H6.00001C5.20437 22.5 4.4413 22.1839 3.87869 21.6213C3.31608 21.0587 3.00001 20.2957 3.00001 19.5V15ZM5.25001 15C5.25001 15.1989 5.32903 15.3897 5.46968 15.5303C5.61034 15.671 5.8011 15.75 6.00001 15.75H16.5C17.0968 15.75 17.669 15.513 18.091 15.091C18.513 14.669 18.75 14.0967 18.75 13.5V6C18.75 5.40327 18.513 4.83097 18.091 4.40901C17.669 3.98706 17.0968 3.75 16.5 3.75H6.00001C5.90141 3.74961 5.80371 3.76873 5.71253 3.80628C5.62136 3.84384 5.53852 3.89906 5.4688 3.96879C5.39908 4.03851 5.34385 4.12135 5.3063 4.21252C5.26875 4.30369 5.24962 4.4014 5.25001 4.5V15ZM8.25001 7.875C8.25001 7.57663 8.36854 7.29049 8.57952 7.07951C8.7905 6.86853 9.07665 6.75 9.37501 6.75H14.625C14.9234 6.75 15.2095 6.86853 15.4205 7.07951C15.6315 7.29049 15.75 7.57663 15.75 7.875C15.75 8.17337 15.6315 8.45952 15.4205 8.6705C15.2095 8.88148 14.9234 9 14.625 9H9.37501C9.07665 9 8.7905 8.88148 8.57952 8.6705C8.36854 8.45952 8.25001 8.17337 8.25001 7.875Z" fill="#6A6B6C"/>
</svg>
