<svg width="777" height="252" viewBox="0 0 777 252" fill="none" xmlns="http://www.w3.org/2000/svg">
<g clip-path="url(#clip0_1597_1866)">
<path d="M10.2355 8.968C10.2355 8.864 10.2675 8.776 10.3315 8.704C10.3955 8.632 10.4855 8.596 10.6015 8.596H11.4055V7.03C11.4055 6.654 11.4595 6.302 11.5675 5.974C11.6755 5.642 11.8395 5.354 12.0595 5.11C12.2795 4.862 12.5515 4.668 12.8755 4.528C13.2035 4.384 13.5875 4.312 14.0275 4.312C14.3395 4.312 14.6175 4.352 14.8615 4.432C15.1055 4.508 15.3215 4.614 15.5095 4.75C15.6975 4.886 15.8595 5.044 15.9955 5.224C16.1355 5.404 16.2535 5.598 16.3495 5.806L15.9175 6.082C15.8135 6.134 15.7155 6.156 15.6235 6.148C15.5355 6.14 15.4515 6.09 15.3715 5.998C15.2955 5.89 15.2155 5.79 15.1315 5.698C15.0515 5.606 14.9595 5.526 14.8555 5.458C14.7515 5.386 14.6315 5.33 14.4955 5.29C14.3635 5.25 14.2075 5.23 14.0275 5.23C13.7755 5.23 13.5535 5.272 13.3615 5.356C13.1735 5.44 13.0155 5.56 12.8875 5.716C12.7595 5.872 12.6635 6.06 12.5995 6.28C12.5355 6.5 12.5035 6.746 12.5035 7.018V8.596H15.1435V9.028C15.1435 9.1 15.1135 9.166 15.0535 9.226C14.9975 9.286 14.9235 9.316 14.8315 9.316H12.5035V10.774C12.5035 11.074 12.4455 11.334 12.3295 11.554C12.2175 11.77 12.0615 11.968 11.8615 12.148C11.9735 12.128 12.0875 12.112 12.2035 12.1C12.3195 12.084 12.4355 12.076 12.5515 12.076H16.6135V12.532C16.6135 12.588 16.6015 12.644 16.5775 12.7C16.5575 12.752 16.5255 12.802 16.4815 12.85C16.4415 12.894 16.3935 12.93 16.3375 12.958C16.2815 12.986 16.2175 13 16.1455 13H10.3615V12.31C10.4975 12.27 10.6275 12.216 10.7515 12.148C10.8795 12.08 10.9915 11.996 11.0875 11.896C11.1835 11.792 11.2595 11.672 11.3155 11.536C11.3755 11.396 11.4055 11.234 11.4055 11.05V9.316H10.2355V8.968ZM23.0764 12.184V13H18.4684V12.184H20.3104V6.322C20.3104 6.146 20.3164 5.968 20.3284 5.788L18.7984 7.102C18.7464 7.146 18.6944 7.174 18.6424 7.186C18.5904 7.194 18.5424 7.194 18.4984 7.186C18.4544 7.178 18.4124 7.162 18.3724 7.138C18.3364 7.114 18.3084 7.088 18.2884 7.06L17.9524 6.598L20.5144 4.384H21.3844V12.184H23.0764ZM24.6554 12.34C24.6554 12.236 24.6734 12.138 24.7094 12.046C24.7494 11.954 24.8014 11.874 24.8654 11.806C24.9334 11.738 25.0134 11.684 25.1054 11.644C25.1974 11.604 25.2954 11.584 25.3994 11.584C25.5034 11.584 25.6014 11.604 25.6934 11.644C25.7854 11.684 25.8654 11.738 25.9334 11.806C26.0014 11.874 26.0554 11.954 26.0954 12.046C26.1354 12.138 26.1554 12.236 26.1554 12.34C26.1554 12.448 26.1354 12.548 26.0954 12.64C26.0554 12.728 26.0014 12.806 25.9334 12.874C25.8654 12.942 25.7854 12.994 25.6934 13.03C25.6014 13.07 25.5034 13.09 25.3994 13.09C25.2954 13.09 25.1974 13.07 25.1054 13.03C25.0134 12.994 24.9334 12.942 24.8654 12.874C24.8014 12.806 24.7494 12.728 24.7094 12.64C24.6734 12.548 24.6554 12.448 24.6554 12.34ZM31.2653 9.898V6.352C31.2653 6.248 31.2693 6.134 31.2773 6.01C31.2853 5.886 31.2973 5.76 31.3133 5.632L28.1813 9.898H31.2653ZM33.5033 9.898V10.51C33.5033 10.574 33.4833 10.628 33.4433 10.672C33.4073 10.716 33.3493 10.738 33.2693 10.738H32.2013V13H31.2653V10.738H27.4493C27.3693 10.738 27.2993 10.716 27.2393 10.672C27.1833 10.624 27.1473 10.566 27.1313 10.498L27.0233 9.952L31.2053 4.402H32.2013V9.898H33.5033ZM35.8263 4.162V9.364H36.1023C36.1823 9.364 36.2483 9.354 36.3003 9.334C36.3563 9.31 36.4143 9.264 36.4743 9.196L38.3943 7.138C38.4503 7.07 38.5083 7.018 38.5683 6.982C38.6323 6.942 38.7163 6.922 38.8203 6.922H39.7863L37.5483 9.304C37.4403 9.44 37.3243 9.546 37.2003 9.622C37.2723 9.67 37.3363 9.726 37.3923 9.79C37.4523 9.85 37.5083 9.92 37.5603 10L39.9362 13H38.9823C38.8903 13 38.8103 12.986 38.7423 12.958C38.6783 12.926 38.6223 12.87 38.5743 12.79L36.5763 10.3C36.5163 10.216 36.4563 10.162 36.3963 10.138C36.3403 10.11 36.2523 10.096 36.1323 10.096H35.8263V13H34.7523V4.162H35.8263Z" fill="#667085"/>
<path d="M48 8.5H777" stroke="#F9F9FC"/>
<path d="M10.2355 39.968C10.2355 39.864 10.2675 39.776 10.3315 39.704C10.3955 39.632 10.4855 39.596 10.6015 39.596H11.4055V38.03C11.4055 37.654 11.4595 37.302 11.5675 36.974C11.6755 36.642 11.8395 36.354 12.0595 36.11C12.2795 35.862 12.5515 35.668 12.8755 35.528C13.2035 35.384 13.5875 35.312 14.0275 35.312C14.3395 35.312 14.6175 35.352 14.8615 35.432C15.1055 35.508 15.3215 35.614 15.5095 35.75C15.6975 35.886 15.8595 36.044 15.9955 36.224C16.1355 36.404 16.2535 36.598 16.3495 36.806L15.9175 37.082C15.8135 37.134 15.7155 37.156 15.6235 37.148C15.5355 37.14 15.4515 37.09 15.3715 36.998C15.2955 36.89 15.2155 36.79 15.1315 36.698C15.0515 36.606 14.9595 36.526 14.8555 36.458C14.7515 36.386 14.6315 36.33 14.4955 36.29C14.3635 36.25 14.2075 36.23 14.0275 36.23C13.7755 36.23 13.5535 36.272 13.3615 36.356C13.1735 36.44 13.0155 36.56 12.8875 36.716C12.7595 36.872 12.6635 37.06 12.5995 37.28C12.5355 37.5 12.5035 37.746 12.5035 38.018V39.596H15.1435V40.028C15.1435 40.1 15.1135 40.166 15.0535 40.226C14.9975 40.286 14.9235 40.316 14.8315 40.316H12.5035V41.774C12.5035 42.074 12.4455 42.334 12.3295 42.554C12.2175 42.77 12.0615 42.968 11.8615 43.148C11.9735 43.128 12.0875 43.112 12.2035 43.1C12.3195 43.084 12.4355 43.076 12.5515 43.076H16.6135V43.532C16.6135 43.588 16.6015 43.644 16.5775 43.7C16.5575 43.752 16.5255 43.802 16.4815 43.85C16.4415 43.894 16.3935 43.93 16.3375 43.958C16.2815 43.986 16.2175 44 16.1455 44H10.3615V43.31C10.4975 43.27 10.6275 43.216 10.7515 43.148C10.8795 43.08 10.9915 42.996 11.0875 42.896C11.1835 42.792 11.2595 42.672 11.3155 42.536C11.3755 42.396 11.4055 42.234 11.4055 42.05V40.316H10.2355V39.968ZM23.0764 43.184V44H18.4684V43.184H20.3104V37.322C20.3104 37.146 20.3164 36.968 20.3284 36.788L18.7984 38.102C18.7464 38.146 18.6944 38.174 18.6424 38.186C18.5904 38.194 18.5424 38.194 18.4984 38.186C18.4544 38.178 18.4124 38.162 18.3724 38.138C18.3364 38.114 18.3084 38.088 18.2884 38.06L17.9524 37.598L20.5144 35.384H21.3844V43.184H23.0764ZM24.6554 43.34C24.6554 43.236 24.6734 43.138 24.7094 43.046C24.7494 42.954 24.8014 42.874 24.8654 42.806C24.9334 42.738 25.0134 42.684 25.1054 42.644C25.1974 42.604 25.2954 42.584 25.3994 42.584C25.5034 42.584 25.6014 42.604 25.6934 42.644C25.7854 42.684 25.8654 42.738 25.9334 42.806C26.0014 42.874 26.0554 42.954 26.0954 43.046C26.1354 43.138 26.1554 43.236 26.1554 43.34C26.1554 43.448 26.1354 43.548 26.0954 43.64C26.0554 43.728 26.0014 43.806 25.9334 43.874C25.8654 43.942 25.7854 43.994 25.6934 44.03C25.6014 44.07 25.5034 44.09 25.3994 44.09C25.2954 44.09 25.1974 44.07 25.1054 44.03C25.0134 43.994 24.9334 43.942 24.8654 43.874C24.8014 43.806 24.7494 43.728 24.7094 43.64C24.6734 43.548 24.6554 43.448 24.6554 43.34ZM32.8073 42.986C32.9233 42.986 33.0153 43.02 33.0833 43.088C33.1513 43.156 33.1853 43.244 33.1853 43.352V44H27.4493V43.634C27.4493 43.558 27.4653 43.48 27.4973 43.4C27.5293 43.32 27.5793 43.246 27.6473 43.178L30.4013 40.412C30.6293 40.18 30.8373 39.958 31.0253 39.746C31.2133 39.53 31.3733 39.314 31.5053 39.098C31.6373 38.882 31.7393 38.664 31.8113 38.444C31.8833 38.22 31.9193 37.982 31.9193 37.73C31.9193 37.478 31.8793 37.258 31.7993 37.07C31.7193 36.878 31.6093 36.72 31.4693 36.596C31.3333 36.472 31.1713 36.38 30.9833 36.32C30.7953 36.256 30.5933 36.224 30.3773 36.224C30.1573 36.224 29.9553 36.256 29.7713 36.32C29.5873 36.384 29.4233 36.474 29.2793 36.59C29.1393 36.702 29.0213 36.836 28.9253 36.992C28.8293 37.148 28.7613 37.32 28.7213 37.508C28.6733 37.648 28.6073 37.742 28.5233 37.79C28.4433 37.834 28.3293 37.846 28.1813 37.826L27.6233 37.73C27.6793 37.338 27.7873 36.992 27.9473 36.692C28.1113 36.388 28.3153 36.134 28.5593 35.93C28.8073 35.726 29.0893 35.572 29.4053 35.468C29.7213 35.36 30.0633 35.306 30.4313 35.306C30.7953 35.306 31.1353 35.36 31.4513 35.468C31.7673 35.576 32.0413 35.734 32.2733 35.942C32.5053 36.146 32.6873 36.396 32.8193 36.692C32.9513 36.988 33.0173 37.324 33.0173 37.7C33.0173 38.02 32.9693 38.318 32.8733 38.594C32.7773 38.866 32.6473 39.126 32.4833 39.374C32.3193 39.622 32.1293 39.864 31.9133 40.1C31.7013 40.336 31.4753 40.574 31.2353 40.814L28.9673 43.13C29.1273 43.086 29.2893 43.052 29.4533 43.028C29.6173 43 29.7753 42.986 29.9273 42.986H32.8073ZM35.8263 35.162V40.364H36.1023C36.1823 40.364 36.2483 40.354 36.3003 40.334C36.3563 40.31 36.4143 40.264 36.4743 40.196L38.3943 38.138C38.4503 38.07 38.5083 38.018 38.5683 37.982C38.6323 37.942 38.7163 37.922 38.8203 37.922H39.7863L37.5483 40.304C37.4403 40.44 37.3243 40.546 37.2003 40.622C37.2723 40.67 37.3363 40.726 37.3923 40.79C37.4523 40.85 37.5083 40.92 37.5603 41L39.9362 44H38.9823C38.8903 44 38.8103 43.986 38.7423 43.958C38.6783 43.926 38.6223 43.87 38.5743 43.79L36.5763 41.3C36.5163 41.216 36.4563 41.162 36.3963 41.138C36.3403 41.11 36.2523 41.096 36.1323 41.096H35.8263V44H34.7523V35.162H35.8263Z" fill="#667085"/>
<path d="M48 39.5H777" stroke="#F9F9FC"/>
<path d="M20.1524 70.968C20.1524 70.864 20.1844 70.776 20.2484 70.704C20.3124 70.632 20.4024 70.596 20.5184 70.596H21.3224V69.03C21.3224 68.654 21.3764 68.302 21.4844 67.974C21.5924 67.642 21.7564 67.354 21.9764 67.11C22.1964 66.862 22.4684 66.668 22.7924 66.528C23.1204 66.384 23.5044 66.312 23.9444 66.312C24.2564 66.312 24.5344 66.352 24.7784 66.432C25.0224 66.508 25.2384 66.614 25.4264 66.75C25.6144 66.886 25.7764 67.044 25.9124 67.224C26.0524 67.404 26.1704 67.598 26.2664 67.806L25.8344 68.082C25.7304 68.134 25.6324 68.156 25.5404 68.148C25.4524 68.14 25.3684 68.09 25.2884 67.998C25.2124 67.89 25.1324 67.79 25.0484 67.698C24.9684 67.606 24.8764 67.526 24.7724 67.458C24.6684 67.386 24.5484 67.33 24.4124 67.29C24.2804 67.25 24.1244 67.23 23.9444 67.23C23.6924 67.23 23.4704 67.272 23.2784 67.356C23.0904 67.44 22.9324 67.56 22.8044 67.716C22.6764 67.872 22.5804 68.06 22.5164 68.28C22.4524 68.5 22.4204 68.746 22.4204 69.018V70.596H25.0604V71.028C25.0604 71.1 25.0304 71.166 24.9704 71.226C24.9144 71.286 24.8404 71.316 24.7484 71.316H22.4204V72.774C22.4204 73.074 22.3624 73.334 22.2464 73.554C22.1344 73.77 21.9784 73.968 21.7784 74.148C21.8904 74.128 22.0044 74.112 22.1204 74.1C22.2364 74.084 22.3524 74.076 22.4684 74.076H26.5304V74.532C26.5304 74.588 26.5184 74.644 26.4944 74.7C26.4744 74.752 26.4424 74.802 26.3984 74.85C26.3584 74.894 26.3104 74.93 26.2544 74.958C26.1984 74.986 26.1344 75 26.0624 75H20.2784V74.31C20.4144 74.27 20.5444 74.216 20.6684 74.148C20.7964 74.08 20.9084 73.996 21.0044 73.896C21.1004 73.792 21.1764 73.672 21.2324 73.536C21.2924 73.396 21.3224 73.234 21.3224 73.05V71.316H20.1524V70.968ZM32.9933 74.184V75H28.3853V74.184H30.2273V68.322C30.2273 68.146 30.2333 67.968 30.2453 67.788L28.7153 69.102C28.6633 69.146 28.6113 69.174 28.5593 69.186C28.5073 69.194 28.4593 69.194 28.4153 69.186C28.3713 69.178 28.3293 69.162 28.2893 69.138C28.2533 69.114 28.2253 69.088 28.2053 69.06L27.8693 68.598L30.4313 66.384H31.3013V74.184H32.9933ZM35.8263 66.162V71.364H36.1023C36.1823 71.364 36.2483 71.354 36.3003 71.334C36.3563 71.31 36.4143 71.264 36.4743 71.196L38.3943 69.138C38.4503 69.07 38.5083 69.018 38.5683 68.982C38.6323 68.942 38.7163 68.922 38.8203 68.922H39.7863L37.5483 71.304C37.4403 71.44 37.3243 71.546 37.2003 71.622C37.2723 71.67 37.3363 71.726 37.3923 71.79C37.4523 71.85 37.5083 71.92 37.5603 72L39.9362 75H38.9823C38.8903 75 38.8103 74.986 38.7423 74.958C38.6783 74.926 38.6223 74.87 38.5743 74.79L36.5763 72.3C36.5163 72.216 36.4563 72.162 36.3963 72.138C36.3403 72.11 36.2523 72.096 36.1323 72.096H35.8263V75H34.7523V66.162H35.8263Z" fill="#667085"/>
<path d="M48 70.5H777" stroke="#F9F9FC"/>
<path d="M12.2642 101.968C12.2642 101.864 12.2962 101.776 12.3602 101.704C12.4242 101.632 12.5142 101.596 12.6302 101.596H13.4342V100.03C13.4342 99.654 13.4882 99.302 13.5962 98.974C13.7042 98.642 13.8682 98.354 14.0882 98.11C14.3082 97.862 14.5802 97.668 14.9042 97.528C15.2322 97.384 15.6162 97.312 16.0562 97.312C16.3682 97.312 16.6462 97.352 16.8903 97.432C17.1343 97.508 17.3503 97.614 17.5382 97.75C17.7262 97.886 17.8882 98.044 18.0242 98.224C18.1643 98.404 18.2823 98.598 18.3782 98.806L17.9463 99.082C17.8422 99.134 17.7442 99.156 17.6522 99.148C17.5642 99.14 17.4802 99.09 17.4002 98.998C17.3242 98.89 17.2442 98.79 17.1602 98.698C17.0802 98.606 16.9882 98.526 16.8842 98.458C16.7802 98.386 16.6602 98.33 16.5242 98.29C16.3922 98.25 16.2362 98.23 16.0562 98.23C15.8042 98.23 15.5822 98.272 15.3902 98.356C15.2022 98.44 15.0442 98.56 14.9162 98.716C14.7882 98.872 14.6922 99.06 14.6282 99.28C14.5642 99.5 14.5322 99.746 14.5322 100.018V101.596H17.1723V102.028C17.1723 102.1 17.1422 102.166 17.0822 102.226C17.0262 102.286 16.9522 102.316 16.8602 102.316H14.5322V103.774C14.5322 104.074 14.4742 104.334 14.3582 104.554C14.2462 104.77 14.0902 104.968 13.8902 105.148C14.0022 105.128 14.1162 105.112 14.2322 105.1C14.3482 105.084 14.4642 105.076 14.5802 105.076H18.6423V105.532C18.6423 105.588 18.6302 105.644 18.6062 105.7C18.5862 105.752 18.5543 105.802 18.5103 105.85C18.4702 105.894 18.4222 105.93 18.3663 105.958C18.3102 105.986 18.2462 106 18.1742 106H12.3902V105.31C12.5262 105.27 12.6562 105.216 12.7802 105.148C12.9082 105.08 13.0202 104.996 13.1162 104.896C13.2122 104.792 13.2882 104.672 13.3442 104.536C13.4042 104.396 13.4342 104.234 13.4342 104.05V102.316H12.2642V101.968ZM22.4772 105.244C22.7572 105.244 23.0072 105.206 23.2272 105.13C23.4512 105.05 23.6392 104.94 23.7912 104.8C23.9472 104.656 24.0652 104.486 24.1452 104.29C24.2292 104.09 24.2712 103.87 24.2712 103.63C24.2712 103.334 24.2212 103.082 24.1212 102.874C24.0252 102.662 23.8932 102.49 23.7252 102.358C23.5612 102.226 23.3712 102.13 23.1552 102.07C22.9392 102.006 22.7132 101.974 22.4772 101.974C22.2412 101.974 22.0152 102.006 21.7992 102.07C21.5832 102.13 21.3912 102.226 21.2232 102.358C21.0592 102.49 20.9272 102.662 20.8272 102.874C20.7312 103.082 20.6832 103.334 20.6832 103.63C20.6832 103.87 20.7232 104.09 20.8032 104.29C20.8872 104.486 21.0052 104.656 21.1572 104.8C21.3132 104.94 21.5012 105.05 21.7212 105.13C21.9452 105.206 22.1972 105.244 22.4772 105.244ZM22.4772 98.134C22.2212 98.134 21.9952 98.172 21.7992 98.248C21.6072 98.324 21.4452 98.428 21.3132 98.56C21.1852 98.692 21.0872 98.846 21.0192 99.022C20.9552 99.198 20.9232 99.386 20.9232 99.586C20.9232 99.782 20.9512 99.972 21.0072 100.156C21.0632 100.34 21.1532 100.504 21.2772 100.648C21.4012 100.788 21.5612 100.902 21.7572 100.99C21.9572 101.074 22.1972 101.116 22.4772 101.116C22.7572 101.116 22.9952 101.074 23.1912 100.99C23.3912 100.902 23.5532 100.788 23.6772 100.648C23.8012 100.504 23.8912 100.34 23.9472 100.156C24.0032 99.972 24.0312 99.782 24.0312 99.586C24.0312 99.386 23.9972 99.198 23.9292 99.022C23.8652 98.846 23.7672 98.692 23.6352 98.56C23.5072 98.428 23.3452 98.324 23.1492 98.248C22.9572 98.172 22.7332 98.134 22.4772 98.134ZM23.7072 101.518C24.2432 101.67 24.6552 101.924 24.9432 102.28C25.2312 102.636 25.3752 103.092 25.3752 103.648C25.3752 104.024 25.3032 104.364 25.1592 104.668C25.0192 104.968 24.8212 105.224 24.5652 105.436C24.3132 105.648 24.0092 105.812 23.6532 105.928C23.2972 106.04 22.9052 106.096 22.4772 106.096C22.0492 106.096 21.6572 106.04 21.3012 105.928C20.9452 105.812 20.6392 105.648 20.3832 105.436C20.1272 105.224 19.9292 104.968 19.7892 104.668C19.6492 104.364 19.5792 104.024 19.5792 103.648C19.5792 103.092 19.7232 102.636 20.0112 102.28C20.2992 101.924 20.7112 101.67 21.2472 101.518C20.7952 101.35 20.4532 101.1 20.2212 100.768C19.9932 100.432 19.8792 100.032 19.8792 99.568C19.8792 99.252 19.9412 98.956 20.0652 98.68C20.1892 98.404 20.3652 98.164 20.5932 97.96C20.8212 97.756 21.0932 97.596 21.4092 97.48C21.7292 97.364 22.0852 97.306 22.4772 97.306C22.8652 97.306 23.2192 97.364 23.5392 97.48C23.8592 97.596 24.1332 97.756 24.3612 97.96C24.5892 98.164 24.7652 98.404 24.8892 98.68C25.0132 98.956 25.0752 99.252 25.0752 99.568C25.0752 100.032 24.9592 100.432 24.7272 100.768C24.4992 101.1 24.1592 101.35 23.7072 101.518ZM32.6181 101.704C32.6181 102.456 32.5361 103.108 32.3721 103.66C32.2121 104.208 31.9921 104.662 31.7121 105.022C31.4321 105.382 31.1001 105.65 30.7161 105.826C30.3361 106.002 29.9281 106.09 29.4921 106.09C29.0521 106.09 28.6421 106.002 28.2621 105.826C27.8861 105.65 27.5581 105.382 27.2781 105.022C26.9981 104.662 26.7781 104.208 26.6181 103.66C26.4581 103.108 26.3781 102.456 26.3781 101.704C26.3781 100.952 26.4581 100.3 26.6181 99.748C26.7781 99.196 26.9981 98.74 27.2781 98.38C27.5581 98.016 27.8861 97.746 28.2621 97.57C28.6421 97.394 29.0521 97.306 29.4921 97.306C29.9281 97.306 30.3361 97.394 30.7161 97.57C31.1001 97.746 31.4321 98.016 31.7121 98.38C31.9921 98.74 32.2121 99.196 32.3721 99.748C32.5361 100.3 32.6181 100.952 32.6181 101.704ZM31.5081 101.704C31.5081 101.048 31.4521 100.498 31.3401 100.054C31.2321 99.606 31.0841 99.246 30.8961 98.974C30.7121 98.702 30.4981 98.508 30.2541 98.392C30.0101 98.272 29.7561 98.212 29.4921 98.212C29.2281 98.212 28.9741 98.272 28.7301 98.392C28.4861 98.508 28.2721 98.702 28.0881 98.974C27.9041 99.246 27.7561 99.606 27.6441 100.054C27.5361 100.498 27.4821 101.048 27.4821 101.704C27.4821 102.36 27.5361 102.91 27.6441 103.354C27.7561 103.798 27.9041 104.156 28.0881 104.428C28.2721 104.7 28.4861 104.896 28.7301 105.016C28.9741 105.132 29.2281 105.19 29.4921 105.19C29.7561 105.19 30.0101 105.132 30.2541 105.016C30.4981 104.896 30.7121 104.7 30.8961 104.428C31.0841 104.156 31.2321 103.798 31.3401 103.354C31.4521 102.91 31.5081 102.36 31.5081 101.704ZM39.6391 101.704C39.6391 102.456 39.5571 103.108 39.3931 103.66C39.2331 104.208 39.0131 104.662 38.7331 105.022C38.4531 105.382 38.1211 105.65 37.7371 105.826C37.3571 106.002 36.9491 106.09 36.5131 106.09C36.0731 106.09 35.6631 106.002 35.2831 105.826C34.9071 105.65 34.5791 105.382 34.2991 105.022C34.0191 104.662 33.7991 104.208 33.6391 103.66C33.4791 103.108 33.3991 102.456 33.3991 101.704C33.3991 100.952 33.4791 100.3 33.6391 99.748C33.7991 99.196 34.0191 98.74 34.2991 98.38C34.5791 98.016 34.9071 97.746 35.2831 97.57C35.6631 97.394 36.0731 97.306 36.5131 97.306C36.9491 97.306 37.3571 97.394 37.7371 97.57C38.1211 97.746 38.4531 98.016 38.7331 98.38C39.0131 98.74 39.2331 99.196 39.3931 99.748C39.5571 100.3 39.6391 100.952 39.6391 101.704ZM38.5291 101.704C38.5291 101.048 38.4731 100.498 38.3611 100.054C38.2531 99.606 38.1051 99.246 37.9171 98.974C37.7331 98.702 37.5191 98.508 37.2751 98.392C37.0311 98.272 36.7771 98.212 36.5131 98.212C36.2491 98.212 35.9951 98.272 35.7511 98.392C35.5071 98.508 35.2931 98.702 35.1091 98.974C34.9251 99.246 34.7771 99.606 34.6651 100.054C34.5571 100.498 34.5031 101.048 34.5031 101.704C34.5031 102.36 34.5571 102.91 34.6651 103.354C34.7771 103.798 34.9251 104.156 35.1091 104.428C35.2931 104.7 35.5071 104.896 35.7511 105.016C35.9951 105.132 36.2491 105.19 36.5131 105.19C36.7771 105.19 37.0311 105.132 37.2751 105.016C37.5191 104.896 37.7331 104.7 37.9171 104.428C38.1051 104.156 38.2531 103.798 38.3611 103.354C38.4731 102.91 38.5291 102.36 38.5291 101.704Z" fill="#667085"/>
<path d="M48 101.5H777" stroke="#F9F9FC"/>
<path d="M12.2642 132.968C12.2642 132.864 12.2962 132.776 12.3602 132.704C12.4242 132.632 12.5142 132.596 12.6302 132.596H13.4342V131.03C13.4342 130.654 13.4882 130.302 13.5962 129.974C13.7042 129.642 13.8682 129.354 14.0882 129.11C14.3082 128.862 14.5802 128.668 14.9042 128.528C15.2322 128.384 15.6162 128.312 16.0562 128.312C16.3682 128.312 16.6462 128.352 16.8903 128.432C17.1343 128.508 17.3503 128.614 17.5382 128.75C17.7262 128.886 17.8882 129.044 18.0242 129.224C18.1643 129.404 18.2823 129.598 18.3782 129.806L17.9463 130.082C17.8422 130.134 17.7442 130.156 17.6522 130.148C17.5642 130.14 17.4802 130.09 17.4002 129.998C17.3242 129.89 17.2442 129.79 17.1602 129.698C17.0802 129.606 16.9882 129.526 16.8842 129.458C16.7802 129.386 16.6602 129.33 16.5242 129.29C16.3922 129.25 16.2362 129.23 16.0562 129.23C15.8042 129.23 15.5822 129.272 15.3902 129.356C15.2022 129.44 15.0442 129.56 14.9162 129.716C14.7882 129.872 14.6922 130.06 14.6282 130.28C14.5642 130.5 14.5322 130.746 14.5322 131.018V132.596H17.1723V133.028C17.1723 133.1 17.1422 133.166 17.0822 133.226C17.0262 133.286 16.9522 133.316 16.8602 133.316H14.5322V134.774C14.5322 135.074 14.4742 135.334 14.3582 135.554C14.2462 135.77 14.0902 135.968 13.8902 136.148C14.0022 136.128 14.1162 136.112 14.2322 136.1C14.3482 136.084 14.4642 136.076 14.5802 136.076H18.6423V136.532C18.6423 136.588 18.6302 136.644 18.6062 136.7C18.5862 136.752 18.5543 136.802 18.5103 136.85C18.4702 136.894 18.4222 136.93 18.3663 136.958C18.3102 136.986 18.2462 137 18.1742 137H12.3902V136.31C12.5262 136.27 12.6562 136.216 12.7802 136.148C12.9082 136.08 13.0202 135.996 13.1162 135.896C13.2122 135.792 13.2882 135.672 13.3442 135.536C13.4042 135.396 13.4342 135.234 13.4342 135.05V133.316H12.2642V132.968ZM22.4652 136.208C22.7532 136.208 23.0132 136.162 23.2452 136.07C23.4812 135.978 23.6812 135.85 23.8452 135.686C24.0132 135.522 24.1412 135.328 24.2292 135.104C24.3212 134.88 24.3672 134.636 24.3672 134.372C24.3672 134.092 24.3232 133.84 24.2352 133.616C24.1472 133.388 24.0212 133.196 23.8572 133.04C23.6972 132.88 23.5052 132.758 23.2812 132.674C23.0572 132.59 22.8112 132.548 22.5432 132.548C22.2552 132.548 21.9952 132.598 21.7632 132.698C21.5312 132.794 21.3332 132.926 21.1692 133.094C21.0092 133.258 20.8852 133.45 20.7972 133.67C20.7132 133.886 20.6712 134.112 20.6712 134.348C20.6712 134.624 20.7112 134.876 20.7912 135.104C20.8712 135.332 20.9872 135.528 21.1392 135.692C21.2952 135.856 21.4832 135.984 21.7032 136.076C21.9272 136.164 22.1812 136.208 22.4652 136.208ZM21.8412 131.624C21.7652 131.72 21.6912 131.814 21.6192 131.906C21.5512 131.994 21.4852 132.082 21.4212 132.17C21.6252 132.03 21.8492 131.922 22.0932 131.846C22.3372 131.77 22.6032 131.732 22.8912 131.732C23.2392 131.732 23.5672 131.79 23.8752 131.906C24.1832 132.018 24.4512 132.184 24.6792 132.404C24.9112 132.62 25.0952 132.888 25.2312 133.208C25.3672 133.524 25.4352 133.886 25.4352 134.294C25.4352 134.69 25.3632 135.058 25.2192 135.398C25.0752 135.738 24.8732 136.034 24.6132 136.286C24.3572 136.538 24.0472 136.736 23.6832 136.88C23.3232 137.024 22.9252 137.096 22.4892 137.096C22.0572 137.096 21.6652 137.028 21.3132 136.892C20.9612 136.752 20.6612 136.556 20.4132 136.304C20.1692 136.048 19.9792 135.74 19.8432 135.38C19.7112 135.016 19.6452 134.61 19.6452 134.162C19.6452 133.786 19.7272 133.386 19.8912 132.962C20.0592 132.534 20.3252 132.078 20.6892 131.594L22.8732 128.66C22.9292 128.588 23.0052 128.528 23.1012 128.48C23.2012 128.428 23.3152 128.402 23.4432 128.402H24.3912L21.8412 131.624ZM32.6181 132.704C32.6181 133.456 32.5361 134.108 32.3721 134.66C32.2121 135.208 31.9921 135.662 31.7121 136.022C31.4321 136.382 31.1001 136.65 30.7161 136.826C30.3361 137.002 29.9281 137.09 29.4921 137.09C29.0521 137.09 28.6421 137.002 28.2621 136.826C27.8861 136.65 27.5581 136.382 27.2781 136.022C26.9981 135.662 26.7781 135.208 26.6181 134.66C26.4581 134.108 26.3781 133.456 26.3781 132.704C26.3781 131.952 26.4581 131.3 26.6181 130.748C26.7781 130.196 26.9981 129.74 27.2781 129.38C27.5581 129.016 27.8861 128.746 28.2621 128.57C28.6421 128.394 29.0521 128.306 29.4921 128.306C29.9281 128.306 30.3361 128.394 30.7161 128.57C31.1001 128.746 31.4321 129.016 31.7121 129.38C31.9921 129.74 32.2121 130.196 32.3721 130.748C32.5361 131.3 32.6181 131.952 32.6181 132.704ZM31.5081 132.704C31.5081 132.048 31.4521 131.498 31.3401 131.054C31.2321 130.606 31.0841 130.246 30.8961 129.974C30.7121 129.702 30.4981 129.508 30.2541 129.392C30.0101 129.272 29.7561 129.212 29.4921 129.212C29.2281 129.212 28.9741 129.272 28.7301 129.392C28.4861 129.508 28.2721 129.702 28.0881 129.974C27.9041 130.246 27.7561 130.606 27.6441 131.054C27.5361 131.498 27.4821 132.048 27.4821 132.704C27.4821 133.36 27.5361 133.91 27.6441 134.354C27.7561 134.798 27.9041 135.156 28.0881 135.428C28.2721 135.7 28.4861 135.896 28.7301 136.016C28.9741 136.132 29.2281 136.19 29.4921 136.19C29.7561 136.19 30.0101 136.132 30.2541 136.016C30.4981 135.896 30.7121 135.7 30.8961 135.428C31.0841 135.156 31.2321 134.798 31.3401 134.354C31.4521 133.91 31.5081 133.36 31.5081 132.704ZM39.6391 132.704C39.6391 133.456 39.5571 134.108 39.3931 134.66C39.2331 135.208 39.0131 135.662 38.7331 136.022C38.4531 136.382 38.1211 136.65 37.7371 136.826C37.3571 137.002 36.9491 137.09 36.5131 137.09C36.0731 137.09 35.6631 137.002 35.2831 136.826C34.9071 136.65 34.5791 136.382 34.2991 136.022C34.0191 135.662 33.7991 135.208 33.6391 134.66C33.4791 134.108 33.3991 133.456 33.3991 132.704C33.3991 131.952 33.4791 131.3 33.6391 130.748C33.7991 130.196 34.0191 129.74 34.2991 129.38C34.5791 129.016 34.9071 128.746 35.2831 128.57C35.6631 128.394 36.0731 128.306 36.5131 128.306C36.9491 128.306 37.3571 128.394 37.7371 128.57C38.1211 128.746 38.4531 129.016 38.7331 129.38C39.0131 129.74 39.2331 130.196 39.3931 130.748C39.5571 131.3 39.6391 131.952 39.6391 132.704ZM38.5291 132.704C38.5291 132.048 38.4731 131.498 38.3611 131.054C38.2531 130.606 38.1051 130.246 37.9171 129.974C37.7331 129.702 37.5191 129.508 37.2751 129.392C37.0311 129.272 36.7771 129.212 36.5131 129.212C36.2491 129.212 35.9951 129.272 35.7511 129.392C35.5071 129.508 35.2931 129.702 35.1091 129.974C34.9251 130.246 34.7771 130.606 34.6651 131.054C34.5571 131.498 34.5031 132.048 34.5031 132.704C34.5031 133.36 34.5571 133.91 34.6651 134.354C34.7771 134.798 34.9251 135.156 35.1091 135.428C35.2931 135.7 35.5071 135.896 35.7511 136.016C35.9951 136.132 36.2491 136.19 36.5131 136.19C36.7771 136.19 37.0311 136.132 37.2751 136.016C37.5191 135.896 37.7331 135.7 37.9171 135.428C38.1051 135.156 38.2531 134.798 38.3611 134.354C38.4731 133.91 38.5291 133.36 38.5291 132.704Z" fill="#667085"/>
<path d="M48 132.5H777" stroke="#F9F9FC"/>
<path d="M12.2642 163.968C12.2642 163.864 12.2962 163.776 12.3602 163.704C12.4242 163.632 12.5142 163.596 12.6302 163.596H13.4342V162.03C13.4342 161.654 13.4882 161.302 13.5962 160.974C13.7042 160.642 13.8682 160.354 14.0882 160.11C14.3082 159.862 14.5802 159.668 14.9042 159.528C15.2322 159.384 15.6162 159.312 16.0562 159.312C16.3682 159.312 16.6462 159.352 16.8903 159.432C17.1343 159.508 17.3503 159.614 17.5382 159.75C17.7262 159.886 17.8882 160.044 18.0242 160.224C18.1643 160.404 18.2823 160.598 18.3782 160.806L17.9463 161.082C17.8422 161.134 17.7442 161.156 17.6522 161.148C17.5642 161.14 17.4802 161.09 17.4002 160.998C17.3242 160.89 17.2442 160.79 17.1602 160.698C17.0802 160.606 16.9882 160.526 16.8842 160.458C16.7802 160.386 16.6602 160.33 16.5242 160.29C16.3922 160.25 16.2362 160.23 16.0562 160.23C15.8042 160.23 15.5822 160.272 15.3902 160.356C15.2022 160.44 15.0442 160.56 14.9162 160.716C14.7882 160.872 14.6922 161.06 14.6282 161.28C14.5642 161.5 14.5322 161.746 14.5322 162.018V163.596H17.1723V164.028C17.1723 164.1 17.1422 164.166 17.0822 164.226C17.0262 164.286 16.9522 164.316 16.8602 164.316H14.5322V165.774C14.5322 166.074 14.4742 166.334 14.3582 166.554C14.2462 166.77 14.0902 166.968 13.8902 167.148C14.0022 167.128 14.1162 167.112 14.2322 167.1C14.3482 167.084 14.4642 167.076 14.5802 167.076H18.6423V167.532C18.6423 167.588 18.6302 167.644 18.6062 167.7C18.5862 167.752 18.5543 167.802 18.5103 167.85C18.4702 167.894 18.4222 167.93 18.3663 167.958C18.3102 167.986 18.2462 168 18.1742 168H12.3902V167.31C12.5262 167.27 12.6562 167.216 12.7802 167.148C12.9082 167.08 13.0202 166.996 13.1162 166.896C13.2122 166.792 13.2882 166.672 13.3442 166.536C13.4042 166.396 13.4342 166.234 13.4342 166.05V164.316H12.2642V163.968ZM23.3772 164.898V161.352C23.3772 161.248 23.3812 161.134 23.3892 161.01C23.3972 160.886 23.4092 160.76 23.4252 160.632L20.2932 164.898H23.3772ZM25.6152 164.898V165.51C25.6152 165.574 25.5952 165.628 25.5552 165.672C25.5192 165.716 25.4612 165.738 25.3812 165.738H24.3132V168H23.3772V165.738H19.5612C19.4812 165.738 19.4112 165.716 19.3512 165.672C19.2952 165.624 19.2592 165.566 19.2432 165.498L19.1352 164.952L23.3172 159.402H24.3132V164.898H25.6152ZM32.6181 163.704C32.6181 164.456 32.5361 165.108 32.3721 165.66C32.2121 166.208 31.9921 166.662 31.7121 167.022C31.4321 167.382 31.1001 167.65 30.7161 167.826C30.3361 168.002 29.9281 168.09 29.4921 168.09C29.0521 168.09 28.6421 168.002 28.2621 167.826C27.8861 167.65 27.5581 167.382 27.2781 167.022C26.9981 166.662 26.7781 166.208 26.6181 165.66C26.4581 165.108 26.3781 164.456 26.3781 163.704C26.3781 162.952 26.4581 162.3 26.6181 161.748C26.7781 161.196 26.9981 160.74 27.2781 160.38C27.5581 160.016 27.8861 159.746 28.2621 159.57C28.6421 159.394 29.0521 159.306 29.4921 159.306C29.9281 159.306 30.3361 159.394 30.7161 159.57C31.1001 159.746 31.4321 160.016 31.7121 160.38C31.9921 160.74 32.2121 161.196 32.3721 161.748C32.5361 162.3 32.6181 162.952 32.6181 163.704ZM31.5081 163.704C31.5081 163.048 31.4521 162.498 31.3401 162.054C31.2321 161.606 31.0841 161.246 30.8961 160.974C30.7121 160.702 30.4981 160.508 30.2541 160.392C30.0101 160.272 29.7561 160.212 29.4921 160.212C29.2281 160.212 28.9741 160.272 28.7301 160.392C28.4861 160.508 28.2721 160.702 28.0881 160.974C27.9041 161.246 27.7561 161.606 27.6441 162.054C27.5361 162.498 27.4821 163.048 27.4821 163.704C27.4821 164.36 27.5361 164.91 27.6441 165.354C27.7561 165.798 27.9041 166.156 28.0881 166.428C28.2721 166.7 28.4861 166.896 28.7301 167.016C28.9741 167.132 29.2281 167.19 29.4921 167.19C29.7561 167.19 30.0101 167.132 30.2541 167.016C30.4981 166.896 30.7121 166.7 30.8961 166.428C31.0841 166.156 31.2321 165.798 31.3401 165.354C31.4521 164.91 31.5081 164.36 31.5081 163.704ZM39.6391 163.704C39.6391 164.456 39.5571 165.108 39.3931 165.66C39.2331 166.208 39.0131 166.662 38.7331 167.022C38.4531 167.382 38.1211 167.65 37.7371 167.826C37.3571 168.002 36.9491 168.09 36.5131 168.09C36.0731 168.09 35.6631 168.002 35.2831 167.826C34.9071 167.65 34.5791 167.382 34.2991 167.022C34.0191 166.662 33.7991 166.208 33.6391 165.66C33.4791 165.108 33.3991 164.456 33.3991 163.704C33.3991 162.952 33.4791 162.3 33.6391 161.748C33.7991 161.196 34.0191 160.74 34.2991 160.38C34.5791 160.016 34.9071 159.746 35.2831 159.57C35.6631 159.394 36.0731 159.306 36.5131 159.306C36.9491 159.306 37.3571 159.394 37.7371 159.57C38.1211 159.746 38.4531 160.016 38.7331 160.38C39.0131 160.74 39.2331 161.196 39.3931 161.748C39.5571 162.3 39.6391 162.952 39.6391 163.704ZM38.5291 163.704C38.5291 163.048 38.4731 162.498 38.3611 162.054C38.2531 161.606 38.1051 161.246 37.9171 160.974C37.7331 160.702 37.5191 160.508 37.2751 160.392C37.0311 160.272 36.7771 160.212 36.5131 160.212C36.2491 160.212 35.9951 160.272 35.7511 160.392C35.5071 160.508 35.2931 160.702 35.1091 160.974C34.9251 161.246 34.7771 161.606 34.6651 162.054C34.5571 162.498 34.5031 163.048 34.5031 163.704C34.5031 164.36 34.5571 164.91 34.6651 165.354C34.7771 165.798 34.9251 166.156 35.1091 166.428C35.2931 166.7 35.5071 166.896 35.7511 167.016C35.9951 167.132 36.2491 167.19 36.5131 167.19C36.7771 167.19 37.0311 167.132 37.2751 167.016C37.5191 166.896 37.7331 166.7 37.9171 166.428C38.1051 166.156 38.2531 165.798 38.3611 165.354C38.4731 164.91 38.5291 164.36 38.5291 163.704Z" fill="#667085"/>
<path d="M48 163.5H777" stroke="#F9F9FC"/>
<path d="M12.2642 194.968C12.2642 194.864 12.2962 194.776 12.3602 194.704C12.4242 194.632 12.5142 194.596 12.6302 194.596H13.4342V193.03C13.4342 192.654 13.4882 192.302 13.5962 191.974C13.7042 191.642 13.8682 191.354 14.0882 191.11C14.3082 190.862 14.5802 190.668 14.9042 190.528C15.2322 190.384 15.6162 190.312 16.0562 190.312C16.3682 190.312 16.6462 190.352 16.8903 190.432C17.1343 190.508 17.3503 190.614 17.5382 190.75C17.7262 190.886 17.8882 191.044 18.0242 191.224C18.1643 191.404 18.2823 191.598 18.3782 191.806L17.9463 192.082C17.8422 192.134 17.7442 192.156 17.6522 192.148C17.5642 192.14 17.4802 192.09 17.4002 191.998C17.3242 191.89 17.2442 191.79 17.1602 191.698C17.0802 191.606 16.9882 191.526 16.8842 191.458C16.7802 191.386 16.6602 191.33 16.5242 191.29C16.3922 191.25 16.2362 191.23 16.0562 191.23C15.8042 191.23 15.5822 191.272 15.3902 191.356C15.2022 191.44 15.0442 191.56 14.9162 191.716C14.7882 191.872 14.6922 192.06 14.6282 192.28C14.5642 192.5 14.5322 192.746 14.5322 193.018V194.596H17.1723V195.028C17.1723 195.1 17.1422 195.166 17.0822 195.226C17.0262 195.286 16.9522 195.316 16.8602 195.316H14.5322V196.774C14.5322 197.074 14.4742 197.334 14.3582 197.554C14.2462 197.77 14.0902 197.968 13.8902 198.148C14.0022 198.128 14.1162 198.112 14.2322 198.1C14.3482 198.084 14.4642 198.076 14.5802 198.076H18.6423V198.532C18.6423 198.588 18.6302 198.644 18.6062 198.7C18.5862 198.752 18.5543 198.802 18.5103 198.85C18.4702 198.894 18.4222 198.93 18.3663 198.958C18.3102 198.986 18.2462 199 18.1742 199H12.3902V198.31C12.5262 198.27 12.6562 198.216 12.7802 198.148C12.9082 198.08 13.0202 197.996 13.1162 197.896C13.2122 197.792 13.2882 197.672 13.3442 197.536C13.4042 197.396 13.4342 197.234 13.4342 197.05V195.316H12.2642V194.968ZM24.9192 197.986C25.0352 197.986 25.1272 198.02 25.1952 198.088C25.2632 198.156 25.2972 198.244 25.2972 198.352V199H19.5612V198.634C19.5612 198.558 19.5772 198.48 19.6092 198.4C19.6412 198.32 19.6912 198.246 19.7592 198.178L22.5132 195.412C22.7412 195.18 22.9492 194.958 23.1372 194.746C23.3252 194.53 23.4852 194.314 23.6172 194.098C23.7492 193.882 23.8512 193.664 23.9232 193.444C23.9952 193.22 24.0312 192.982 24.0312 192.73C24.0312 192.478 23.9912 192.258 23.9112 192.07C23.8312 191.878 23.7212 191.72 23.5812 191.596C23.4452 191.472 23.2832 191.38 23.0952 191.32C22.9072 191.256 22.7052 191.224 22.4892 191.224C22.2692 191.224 22.0672 191.256 21.8832 191.32C21.6992 191.384 21.5352 191.474 21.3912 191.59C21.2512 191.702 21.1332 191.836 21.0372 191.992C20.9412 192.148 20.8732 192.32 20.8332 192.508C20.7852 192.648 20.7192 192.742 20.6352 192.79C20.5552 192.834 20.4412 192.846 20.2932 192.826L19.7352 192.73C19.7912 192.338 19.8992 191.992 20.0592 191.692C20.2232 191.388 20.4272 191.134 20.6712 190.93C20.9192 190.726 21.2012 190.572 21.5172 190.468C21.8332 190.36 22.1752 190.306 22.5432 190.306C22.9072 190.306 23.2472 190.36 23.5632 190.468C23.8792 190.576 24.1532 190.734 24.3852 190.942C24.6172 191.146 24.7992 191.396 24.9312 191.692C25.0632 191.988 25.1292 192.324 25.1292 192.7C25.1292 193.02 25.0812 193.318 24.9852 193.594C24.8892 193.866 24.7592 194.126 24.5952 194.374C24.4312 194.622 24.2412 194.864 24.0252 195.1C23.8132 195.336 23.5872 195.574 23.3472 195.814L21.0792 198.13C21.2392 198.086 21.4012 198.052 21.5652 198.028C21.7292 198 21.8872 197.986 22.0392 197.986H24.9192ZM32.6181 194.704C32.6181 195.456 32.5361 196.108 32.3721 196.66C32.2121 197.208 31.9921 197.662 31.7121 198.022C31.4321 198.382 31.1001 198.65 30.7161 198.826C30.3361 199.002 29.9281 199.09 29.4921 199.09C29.0521 199.09 28.6421 199.002 28.2621 198.826C27.8861 198.65 27.5581 198.382 27.2781 198.022C26.9981 197.662 26.7781 197.208 26.6181 196.66C26.4581 196.108 26.3781 195.456 26.3781 194.704C26.3781 193.952 26.4581 193.3 26.6181 192.748C26.7781 192.196 26.9981 191.74 27.2781 191.38C27.5581 191.016 27.8861 190.746 28.2621 190.57C28.6421 190.394 29.0521 190.306 29.4921 190.306C29.9281 190.306 30.3361 190.394 30.7161 190.57C31.1001 190.746 31.4321 191.016 31.7121 191.38C31.9921 191.74 32.2121 192.196 32.3721 192.748C32.5361 193.3 32.6181 193.952 32.6181 194.704ZM31.5081 194.704C31.5081 194.048 31.4521 193.498 31.3401 193.054C31.2321 192.606 31.0841 192.246 30.8961 191.974C30.7121 191.702 30.4981 191.508 30.2541 191.392C30.0101 191.272 29.7561 191.212 29.4921 191.212C29.2281 191.212 28.9741 191.272 28.7301 191.392C28.4861 191.508 28.2721 191.702 28.0881 191.974C27.9041 192.246 27.7561 192.606 27.6441 193.054C27.5361 193.498 27.4821 194.048 27.4821 194.704C27.4821 195.36 27.5361 195.91 27.6441 196.354C27.7561 196.798 27.9041 197.156 28.0881 197.428C28.2721 197.7 28.4861 197.896 28.7301 198.016C28.9741 198.132 29.2281 198.19 29.4921 198.19C29.7561 198.19 30.0101 198.132 30.2541 198.016C30.4981 197.896 30.7121 197.7 30.8961 197.428C31.0841 197.156 31.2321 196.798 31.3401 196.354C31.4521 195.91 31.5081 195.36 31.5081 194.704ZM39.6391 194.704C39.6391 195.456 39.5571 196.108 39.3931 196.66C39.2331 197.208 39.0131 197.662 38.7331 198.022C38.4531 198.382 38.1211 198.65 37.7371 198.826C37.3571 199.002 36.9491 199.09 36.5131 199.09C36.0731 199.09 35.6631 199.002 35.2831 198.826C34.9071 198.65 34.5791 198.382 34.2991 198.022C34.0191 197.662 33.7991 197.208 33.6391 196.66C33.4791 196.108 33.3991 195.456 33.3991 194.704C33.3991 193.952 33.4791 193.3 33.6391 192.748C33.7991 192.196 34.0191 191.74 34.2991 191.38C34.5791 191.016 34.9071 190.746 35.2831 190.57C35.6631 190.394 36.0731 190.306 36.5131 190.306C36.9491 190.306 37.3571 190.394 37.7371 190.57C38.1211 190.746 38.4531 191.016 38.7331 191.38C39.0131 191.74 39.2331 192.196 39.3931 192.748C39.5571 193.3 39.6391 193.952 39.6391 194.704ZM38.5291 194.704C38.5291 194.048 38.4731 193.498 38.3611 193.054C38.2531 192.606 38.1051 192.246 37.9171 191.974C37.7331 191.702 37.5191 191.508 37.2751 191.392C37.0311 191.272 36.7771 191.212 36.5131 191.212C36.2491 191.212 35.9951 191.272 35.7511 191.392C35.5071 191.508 35.2931 191.702 35.1091 191.974C34.9251 192.246 34.7771 192.606 34.6651 193.054C34.5571 193.498 34.5031 194.048 34.5031 194.704C34.5031 195.36 34.5571 195.91 34.6651 196.354C34.7771 196.798 34.9251 197.156 35.1091 197.428C35.2931 197.7 35.5071 197.896 35.7511 198.016C35.9951 198.132 36.2491 198.19 36.5131 198.19C36.7771 198.19 37.0311 198.132 37.2751 198.016C37.5191 197.896 37.7331 197.7 37.9171 197.428C38.1051 197.156 38.2531 196.798 38.3611 196.354C38.4731 195.91 38.5291 195.36 38.5291 194.704Z" fill="#667085"/>
<path d="M48 194.5H777" stroke="#F9F9FC"/>
<path d="M39.6391 225.704C39.6391 226.456 39.5571 227.108 39.3931 227.66C39.2331 228.208 39.0131 228.662 38.7331 229.022C38.4531 229.382 38.1211 229.65 37.7371 229.826C37.3571 230.002 36.9491 230.09 36.5131 230.09C36.0731 230.09 35.6631 230.002 35.2831 229.826C34.9071 229.65 34.5791 229.382 34.2991 229.022C34.0191 228.662 33.7991 228.208 33.6391 227.66C33.4791 227.108 33.3991 226.456 33.3991 225.704C33.3991 224.952 33.4791 224.3 33.6391 223.748C33.7991 223.196 34.0191 222.74 34.2991 222.38C34.5791 222.016 34.9071 221.746 35.2831 221.57C35.6631 221.394 36.0731 221.306 36.5131 221.306C36.9491 221.306 37.3571 221.394 37.7371 221.57C38.1211 221.746 38.4531 222.016 38.7331 222.38C39.0131 222.74 39.2331 223.196 39.3931 223.748C39.5571 224.3 39.6391 224.952 39.6391 225.704ZM38.5291 225.704C38.5291 225.048 38.4731 224.498 38.3611 224.054C38.2531 223.606 38.1051 223.246 37.9171 222.974C37.7331 222.702 37.5191 222.508 37.2751 222.392C37.0311 222.272 36.7771 222.212 36.5131 222.212C36.2491 222.212 35.9951 222.272 35.7511 222.392C35.5071 222.508 35.2931 222.702 35.1091 222.974C34.9251 223.246 34.7771 223.606 34.6651 224.054C34.5571 224.498 34.5031 225.048 34.5031 225.704C34.5031 226.36 34.5571 226.91 34.6651 227.354C34.7771 227.798 34.9251 228.156 35.1091 228.428C35.2931 228.7 35.5071 228.896 35.7511 229.016C35.9951 229.132 36.2491 229.19 36.5131 229.19C36.7771 229.19 37.0311 229.132 37.2751 229.016C37.5191 228.896 37.7331 228.7 37.9171 228.428C38.1051 228.156 38.2531 227.798 38.3611 227.354C38.4731 226.91 38.5291 226.36 38.5291 225.704Z" fill="#667085"/>
<path d="M48 225.5H777" stroke="#F9F9FC"/>
<g clip-path="url(#clip1_1597_1866)">
<path d="M48 82H47V83V226V227H48H777H778V226V94V93H777C774.437 93 772.232 94.2284 770.287 95.8973C768.362 97.5491 766.579 99.7314 764.868 101.826L764.835 101.867C763.085 104.01 761.407 106.06 759.629 107.585C757.859 109.103 756.104 110 754.219 110C752.551 110 750.835 108.615 748.983 105.905C747.177 103.262 745.476 99.7149 743.73 96.0682L743.705 96.016C741.988 92.4292 740.226 88.7489 738.325 85.9671C736.462 83.2402 734.218 81 731.438 81C730.026 81 728.759 81.5988 727.637 82.5143C726.521 83.4247 725.497 84.6891 724.541 86.1364C722.642 89.012 720.881 92.8173 719.163 96.5297L719.139 96.58C717.394 100.352 715.691 104.025 713.884 106.761C712.982 108.127 712.087 109.206 711.192 109.936C710.304 110.661 709.469 111 708.656 111C706.016 111 703.788 112.559 701.867 114.595C699.95 116.626 698.176 119.31 696.463 121.9L696.431 121.948C694.682 124.594 692.996 127.139 691.209 129.032C689.415 130.934 687.683 132 685.875 132C684.157 132 682.439 130.733 680.609 128.331C678.81 125.971 677.114 122.801 675.366 119.529L675.34 119.479C673.624 116.266 671.858 112.958 669.951 110.456C668.066 107.983 665.824 106 663.094 106C661.228 106 659.48 105.06 657.704 103.447C655.925 101.831 654.245 99.6576 652.495 97.3892L652.461 97.3454C650.75 95.1271 648.97 92.8193 647.047 91.0723C645.107 89.3101 642.895 88 640.312 88C635.626 88 631.972 89.8423 628.539 91.5729L628.472 91.6071C624.982 93.3666 621.71 95 617.531 95C615.626 95 613.863 94.1476 612.098 92.722C610.322 91.2883 608.646 89.3611 606.896 87.3446L606.862 87.3054C605.151 85.3339 603.367 83.278 601.44 81.722C599.49 80.1476 597.293 79 594.75 79C593.948 79 593.117 78.6544 592.226 77.9035C591.33 77.1478 590.434 76.0305 589.531 74.6177C587.721 71.787 586.017 67.9879 584.272 64.0912L584.25 64.0413C582.531 60.2037 580.771 56.2741 578.873 53.3052C577.918 51.8118 576.896 50.5072 575.782 49.5676C574.662 48.6232 573.39 48 571.969 48C570.301 48 568.585 46.6153 566.733 43.9046C564.927 41.2624 563.226 37.7149 561.48 34.0682L561.455 34.0167C559.738 30.4297 557.976 26.7491 556.075 23.9671C554.212 21.2402 551.968 19 549.188 19C547.607 19 546.298 20.04 545.232 21.4034C544.145 22.7925 543.145 24.7241 542.204 26.9553C540.325 31.413 538.577 37.3301 536.851 43.1719L536.838 43.2167C535.097 49.1103 533.378 54.9244 531.547 59.2678C530.63 61.4428 529.711 63.1831 528.787 64.3644C527.843 65.5712 527.05 66 526.406 66C521.69 66 518.018 68.1161 514.597 70.0872L514.516 70.1335C511.018 72.1494 507.768 74 503.625 74C499.482 74 496.232 72.1494 492.734 70.1335L492.653 70.0872C489.232 68.1161 485.56 66 480.844 66C476.628 66 473.333 64.5871 469.85 63.082L469.794 63.058C466.351 61.5701 462.718 60 458.062 60C455.403 60 453.172 61.6432 451.258 63.7682C449.343 65.8944 447.57 68.7037 445.857 71.4181L445.826 71.4663C444.078 74.2369 442.389 76.907 440.6 78.8932C438.799 80.8932 437.07 82 435.281 82C434.489 82 433.662 81.6479 432.77 80.8707C431.872 80.0894 430.974 78.934 430.07 77.4735C428.258 74.5485 426.553 70.6235 424.808 66.602L424.786 66.5512C423.067 62.5889 421.308 58.5354 419.412 55.4735C418.459 53.934 417.438 52.5894 416.325 51.6207C415.207 50.6479 413.932 50 412.5 50C409.937 50 407.732 51.2284 405.787 52.8973C403.862 54.549 402.08 56.7309 400.369 58.8257L400.335 58.8674C398.585 61.0099 396.907 63.0599 395.129 64.5848C393.359 66.1034 391.604 67 389.719 67C384.947 67 381.245 69.6665 377.851 72.1112L377.744 72.1886C374.225 74.7231 371.012 77 366.938 77C362.314 77 358.704 78.3001 355.253 79.5431L355.208 79.5591C351.731 80.8113 348.41 82 344.156 82C340.115 82 336.917 79.5131 333.387 76.7162L333.265 76.62C329.886 73.9422 326.173 71 321.375 71C316.577 71 312.864 73.9422 309.485 76.62L309.363 76.7162C305.833 79.5131 302.635 82 298.594 82C293.971 82 290.36 83.3001 286.909 84.5431L286.864 84.5591C283.387 85.8113 280.066 87 275.812 87C273.27 87 271.072 88.1476 269.123 89.722C267.196 91.2778 265.412 93.3335 263.701 95.3049L263.667 95.3446C261.917 97.3611 260.24 99.2883 258.465 100.722C256.699 102.148 254.937 103 253.031 103C248.233 103 244.52 105.942 241.141 108.62L241.02 108.716C237.489 111.513 234.291 114 230.25 114C228.404 114 226.662 113.017 224.88 111.309C223.099 109.601 221.416 107.304 219.667 104.91L219.634 104.865C217.922 102.523 216.144 100.089 214.223 98.2469C212.288 96.3925 210.071 95 207.469 95C205.768 95 204.051 93.6938 202.213 91.1896C200.412 88.7356 198.714 85.4394 196.967 82.0427L196.941 81.9917C195.225 78.6544 193.46 75.2223 191.555 72.6271C189.678 70.0688 187.435 68 184.688 68C183.194 68 181.901 68.8004 180.8 69.9375C179.698 71.0774 178.686 72.6592 177.739 74.4751C175.851 78.0956 174.098 82.8944 172.375 87.6082L172.358 87.6568C170.615 92.4274 168.902 97.108 167.081 100.6C166.171 102.347 165.264 103.734 164.356 104.672C163.445 105.613 162.637 106 161.906 106C157.763 106 154.514 104.149 151.015 102.134L150.934 102.087C147.514 100.116 143.841 98 139.125 98C136.582 98 134.385 99.1476 132.435 100.722C130.508 102.278 128.724 104.333 127.014 106.305L126.979 106.345C125.229 108.361 123.553 110.288 121.777 111.722C120.012 113.148 118.249 114 116.344 114C114.591 114 112.869 112.813 111.053 110.613C109.259 108.441 107.567 105.521 105.819 102.499L105.79 102.449C104.075 99.486 102.306 96.4275 100.395 94.1133C98.4958 91.8126 96.2581 90 93.5625 90C89.0074 90 85.449 90.7688 81.9855 91.5172L81.9607 91.5226C78.4897 92.2725 75.1119 93 70.7812 93C66.74 93 63.542 90.5131 60.0116 87.7162L59.8903 87.62C56.5108 84.9422 52.7979 82 48 82Z" fill="url(#paint0_linear_1597_1866)" fill-opacity="0.5" stroke="#04BD4B" stroke-width="2"/>
<g filter="url(#filter0_d_1597_1866)">
<rect x="351" y="17" width="83" height="34" rx="8" fill="white"/>
<rect x="351.5" y="17.5" width="82" height="33" rx="7.5" stroke="#F0F1F3"/>
<circle cx="369" cy="34" r="6" fill="#04BD4B"/>
<path d="M384.418 34.968C384.418 34.864 384.45 34.776 384.514 34.704C384.578 34.632 384.668 34.596 384.784 34.596H385.588V33.03C385.588 32.654 385.642 32.302 385.75 31.974C385.858 31.642 386.022 31.354 386.242 31.11C386.462 30.862 386.734 30.668 387.058 30.528C387.386 30.384 387.77 30.312 388.21 30.312C388.522 30.312 388.8 30.352 389.044 30.432C389.288 30.508 389.504 30.614 389.692 30.75C389.88 30.886 390.042 31.044 390.178 31.224C390.318 31.404 390.436 31.598 390.532 31.806L390.1 32.082C389.996 32.134 389.898 32.156 389.806 32.148C389.718 32.14 389.634 32.09 389.554 31.998C389.478 31.89 389.398 31.79 389.314 31.698C389.234 31.606 389.142 31.526 389.038 31.458C388.934 31.386 388.814 31.33 388.678 31.29C388.546 31.25 388.39 31.23 388.21 31.23C387.958 31.23 387.736 31.272 387.544 31.356C387.356 31.44 387.198 31.56 387.07 31.716C386.942 31.872 386.846 32.06 386.782 32.28C386.718 32.5 386.686 32.746 386.686 33.018V34.596H389.326V35.028C389.326 35.1 389.296 35.166 389.236 35.226C389.18 35.286 389.106 35.316 389.014 35.316H386.686V36.774C386.686 37.074 386.628 37.334 386.512 37.554C386.4 37.77 386.244 37.968 386.044 38.148C386.156 38.128 386.27 38.112 386.386 38.1C386.502 38.084 386.618 38.076 386.734 38.076H390.796V38.532C390.796 38.588 390.784 38.644 390.76 38.7C390.74 38.752 390.708 38.802 390.664 38.85C390.624 38.894 390.576 38.93 390.52 38.958C390.464 38.986 390.4 39 390.328 39H384.544V38.31C384.68 38.27 384.81 38.216 384.934 38.148C385.062 38.08 385.174 37.996 385.27 37.896C385.366 37.792 385.442 37.672 385.498 37.536C385.558 37.396 385.588 37.234 385.588 37.05V35.316H384.418V34.968ZM397.259 38.184V39H392.651V38.184H394.493V32.322C394.493 32.146 394.499 31.968 394.511 31.788L392.981 33.102C392.929 33.146 392.877 33.174 392.825 33.186C392.773 33.194 392.725 33.194 392.681 33.186C392.637 33.178 392.595 33.162 392.555 33.138C392.519 33.114 392.491 33.088 392.471 33.06L392.135 32.598L394.697 30.384H395.567V38.184H397.259ZM398.952 40.452C398.92 40.424 398.898 40.398 398.886 40.374C398.874 40.35 398.868 40.32 398.868 40.284C398.868 40.256 398.876 40.228 398.892 40.2C398.912 40.172 398.934 40.146 398.958 40.122C398.998 40.078 399.048 40.02 399.108 39.948C399.172 39.876 399.236 39.79 399.3 39.69C399.364 39.594 399.422 39.486 399.474 39.366C399.53 39.25 399.57 39.126 399.594 38.994C399.582 38.998 399.568 39 399.552 39C399.54 39 399.528 39 399.516 39C399.308 39 399.138 38.932 399.006 38.796C398.878 38.656 398.814 38.478 398.814 38.262C398.814 38.074 398.878 37.914 399.006 37.782C399.138 37.65 399.312 37.584 399.528 37.584C399.648 37.584 399.754 37.606 399.846 37.65C399.938 37.694 400.014 37.756 400.074 37.836C400.138 37.912 400.186 38.002 400.218 38.106C400.25 38.206 400.266 38.316 400.266 38.436C400.266 38.616 400.24 38.804 400.188 39C400.14 39.192 400.066 39.382 399.966 39.57C399.87 39.762 399.752 39.948 399.612 40.128C399.472 40.308 399.312 40.474 399.132 40.626L398.952 40.452ZM407.551 34.704C407.551 35.456 407.469 36.108 407.305 36.66C407.145 37.208 406.925 37.662 406.645 38.022C406.365 38.382 406.033 38.65 405.649 38.826C405.269 39.002 404.861 39.09 404.425 39.09C403.985 39.09 403.575 39.002 403.195 38.826C402.819 38.65 402.491 38.382 402.211 38.022C401.931 37.662 401.711 37.208 401.551 36.66C401.391 36.108 401.311 35.456 401.311 34.704C401.311 33.952 401.391 33.3 401.551 32.748C401.711 32.196 401.931 31.74 402.211 31.38C402.491 31.016 402.819 30.746 403.195 30.57C403.575 30.394 403.985 30.306 404.425 30.306C404.861 30.306 405.269 30.394 405.649 30.57C406.033 30.746 406.365 31.016 406.645 31.38C406.925 31.74 407.145 32.196 407.305 32.748C407.469 33.3 407.551 33.952 407.551 34.704ZM406.441 34.704C406.441 34.048 406.385 33.498 406.273 33.054C406.165 32.606 406.017 32.246 405.829 31.974C405.645 31.702 405.431 31.508 405.187 31.392C404.943 31.272 404.689 31.212 404.425 31.212C404.161 31.212 403.907 31.272 403.663 31.392C403.419 31.508 403.205 31.702 403.021 31.974C402.837 32.246 402.689 32.606 402.577 33.054C402.469 33.498 402.415 34.048 402.415 34.704C402.415 35.36 402.469 35.91 402.577 36.354C402.689 36.798 402.837 37.156 403.021 37.428C403.205 37.7 403.419 37.896 403.663 38.016C403.907 38.132 404.161 38.19 404.425 38.19C404.689 38.19 404.943 38.132 405.187 38.016C405.431 37.896 405.645 37.7 405.829 37.428C406.017 37.156 406.165 36.798 406.273 36.354C406.385 35.91 406.441 35.36 406.441 34.704ZM410.144 33.648C410.592 33.552 411.004 33.504 411.38 33.504C411.828 33.504 412.224 33.57 412.568 33.702C412.912 33.834 413.198 34.016 413.426 34.248C413.658 34.48 413.832 34.754 413.948 35.07C414.068 35.386 414.128 35.73 414.128 36.102C414.128 36.558 414.048 36.97 413.888 37.338C413.732 37.706 413.514 38.022 413.234 38.286C412.958 38.546 412.632 38.746 412.256 38.886C411.88 39.026 411.474 39.096 411.038 39.096C410.786 39.096 410.544 39.07 410.312 39.018C410.08 38.97 409.862 38.904 409.658 38.82C409.458 38.736 409.272 38.64 409.1 38.532C408.928 38.424 408.776 38.31 408.644 38.19L408.974 37.734C409.046 37.63 409.14 37.578 409.256 37.578C409.336 37.578 409.426 37.61 409.526 37.674C409.626 37.734 409.748 37.802 409.892 37.878C410.036 37.954 410.204 38.024 410.396 38.088C410.592 38.148 410.824 38.178 411.092 38.178C411.392 38.178 411.662 38.13 411.902 38.034C412.142 37.938 412.348 37.802 412.52 37.626C412.692 37.446 412.824 37.232 412.916 36.984C413.008 36.736 413.054 36.458 413.054 36.15C413.054 35.882 413.014 35.64 412.934 35.424C412.858 35.208 412.74 35.024 412.58 34.872C412.424 34.72 412.228 34.602 411.992 34.518C411.756 34.434 411.48 34.392 411.164 34.392C410.948 34.392 410.722 34.41 410.486 34.446C410.254 34.482 410.016 34.54 409.772 34.62L409.1 34.422L409.79 30.402H413.864V30.87C413.864 31.022 413.816 31.148 413.72 31.248C413.628 31.344 413.468 31.392 413.24 31.392H410.54L410.144 33.648ZM421.593 34.704C421.593 35.456 421.511 36.108 421.347 36.66C421.187 37.208 420.967 37.662 420.687 38.022C420.407 38.382 420.075 38.65 419.691 38.826C419.311 39.002 418.903 39.09 418.467 39.09C418.027 39.09 417.617 39.002 417.237 38.826C416.861 38.65 416.533 38.382 416.253 38.022C415.973 37.662 415.753 37.208 415.593 36.66C415.433 36.108 415.353 35.456 415.353 34.704C415.353 33.952 415.433 33.3 415.593 32.748C415.753 32.196 415.973 31.74 416.253 31.38C416.533 31.016 416.861 30.746 417.237 30.57C417.617 30.394 418.027 30.306 418.467 30.306C418.903 30.306 419.311 30.394 419.691 30.57C420.075 30.746 420.407 31.016 420.687 31.38C420.967 31.74 421.187 32.196 421.347 32.748C421.511 33.3 421.593 33.952 421.593 34.704ZM420.483 34.704C420.483 34.048 420.427 33.498 420.315 33.054C420.207 32.606 420.059 32.246 419.871 31.974C419.687 31.702 419.473 31.508 419.229 31.392C418.985 31.272 418.731 31.212 418.467 31.212C418.203 31.212 417.949 31.272 417.705 31.392C417.461 31.508 417.247 31.702 417.063 31.974C416.879 32.246 416.731 32.606 416.619 33.054C416.511 33.498 416.457 34.048 416.457 34.704C416.457 35.36 416.511 35.91 416.619 36.354C416.731 36.798 416.879 37.156 417.063 37.428C417.247 37.7 417.461 37.896 417.705 38.016C417.949 38.132 418.203 38.19 418.467 38.19C418.731 38.19 418.985 38.132 419.229 38.016C419.473 37.896 419.687 37.7 419.871 37.428C420.059 37.156 420.207 36.798 420.315 36.354C420.427 35.91 420.483 35.36 420.483 34.704Z" fill="#667085"/>
</g>
<circle cx="392.5" cy="61" r="5" fill="#04BD4B" stroke="white" stroke-width="2"/>
<path d="M392.5 71V226" stroke="#9D9BF1" stroke-dasharray="5 5"/>
</g>
<path d="M75.629 245.03C75.629 245.51 75.569 245.94 75.449 246.32C75.333 246.7 75.159 247.022 74.927 247.286C74.699 247.546 74.417 247.746 74.081 247.886C73.745 248.026 73.359 248.096 72.923 248.096C72.527 248.096 72.123 248.04 71.711 247.928C71.719 247.812 71.729 247.698 71.741 247.586C71.753 247.47 71.763 247.356 71.771 247.244C71.779 247.176 71.803 247.122 71.843 247.082C71.887 247.038 71.953 247.016 72.041 247.016C72.113 247.016 72.207 247.034 72.323 247.07C72.443 247.106 72.603 247.124 72.803 247.124C73.067 247.124 73.303 247.084 73.511 247.004C73.719 246.924 73.893 246.8 74.033 246.632C74.173 246.464 74.279 246.25 74.351 245.99C74.427 245.726 74.465 245.414 74.465 245.054V239.402H75.629V245.03ZM80.6068 245.264C80.1148 245.28 79.6948 245.32 79.3468 245.384C79.0028 245.444 78.7208 245.524 78.5008 245.624C78.2848 245.724 78.1268 245.842 78.0268 245.978C77.9308 246.114 77.8828 246.266 77.8828 246.434C77.8828 246.594 77.9088 246.732 77.9608 246.848C78.0128 246.964 78.0828 247.06 78.1708 247.136C78.2628 247.208 78.3688 247.262 78.4888 247.298C78.6128 247.33 78.7448 247.346 78.8848 247.346C79.0728 247.346 79.2448 247.328 79.4008 247.292C79.5568 247.252 79.7028 247.196 79.8388 247.124C79.9788 247.052 80.1108 246.966 80.2348 246.866C80.3628 246.766 80.4868 246.652 80.6068 246.524V245.264ZM77.1568 242.78C77.4928 242.456 77.8548 242.214 78.2428 242.054C78.6308 241.894 79.0608 241.814 79.5328 241.814C79.8728 241.814 80.1748 241.87 80.4388 241.982C80.7028 242.094 80.9248 242.25 81.1048 242.45C81.2848 242.65 81.4208 242.892 81.5128 243.176C81.6048 243.46 81.6508 243.772 81.6508 244.112V248H81.1768C81.0728 248 80.9928 247.984 80.9368 247.952C80.8808 247.916 80.8368 247.848 80.8048 247.748L80.6848 247.172C80.5248 247.32 80.3688 247.452 80.2168 247.568C80.0648 247.68 79.9048 247.776 79.7368 247.856C79.5688 247.932 79.3888 247.99 79.1968 248.03C79.0088 248.074 78.7988 248.096 78.5668 248.096C78.3308 248.096 78.1088 248.064 77.9008 248C77.6928 247.932 77.5108 247.832 77.3548 247.7C77.2028 247.568 77.0808 247.402 76.9888 247.202C76.9008 246.998 76.8568 246.758 76.8568 246.482C76.8568 246.242 76.9228 246.012 77.0548 245.792C77.1868 245.568 77.4008 245.37 77.6968 245.198C77.9928 245.026 78.3788 244.886 78.8548 244.778C79.3308 244.666 79.9148 244.602 80.6068 244.586V244.112C80.6068 243.64 80.5048 243.284 80.3008 243.044C80.0968 242.8 79.7988 242.678 79.4068 242.678C79.1428 242.678 78.9208 242.712 78.7408 242.78C78.5648 242.844 78.4108 242.918 78.2788 243.002C78.1508 243.082 78.0388 243.156 77.9428 243.224C77.8508 243.288 77.7588 243.32 77.6668 243.32C77.5948 243.32 77.5328 243.302 77.4808 243.266C77.4288 243.226 77.3848 243.178 77.3488 243.122L77.1568 242.78ZM84.3456 242.804C84.4776 242.656 84.6176 242.522 84.7656 242.402C84.9136 242.282 85.0696 242.18 85.2336 242.096C85.4016 242.008 85.5776 241.942 85.7616 241.898C85.9496 241.85 86.1516 241.826 86.3676 241.826C86.6996 241.826 86.9916 241.882 87.2436 241.994C87.4996 242.102 87.7116 242.258 87.8796 242.462C88.0516 242.662 88.1816 242.904 88.2696 243.188C88.3576 243.472 88.4016 243.786 88.4016 244.13V248H87.3276V244.13C87.3276 243.67 87.2216 243.314 87.0096 243.062C86.8016 242.806 86.4836 242.678 86.0556 242.678C85.7396 242.678 85.4436 242.754 85.1676 242.906C84.8956 243.058 84.6436 243.264 84.4116 243.524V248H83.3376V241.922H83.9796C84.1316 241.922 84.2256 241.996 84.2616 242.144L84.3456 242.804Z" fill="#667085"/>
<path d="M133.671 240.35V243.356H137.205V244.304H133.671V248H132.507V239.402H137.805V240.35H133.671ZM142.641 244.298C142.641 244.05 142.605 243.824 142.533 243.62C142.465 243.412 142.363 243.234 142.227 243.086C142.095 242.934 141.933 242.818 141.741 242.738C141.549 242.654 141.331 242.612 141.087 242.612C140.575 242.612 140.169 242.762 139.869 243.062C139.573 243.358 139.389 243.77 139.317 244.298H142.641ZM143.505 247.148C143.373 247.308 143.215 247.448 143.031 247.568C142.847 247.684 142.649 247.78 142.437 247.856C142.229 247.932 142.013 247.988 141.789 248.024C141.565 248.064 141.343 248.084 141.123 248.084C140.703 248.084 140.315 248.014 139.959 247.874C139.607 247.73 139.301 247.522 139.041 247.25C138.785 246.974 138.585 246.634 138.441 246.23C138.297 245.826 138.225 245.362 138.225 244.838C138.225 244.414 138.289 244.018 138.417 243.65C138.549 243.282 138.737 242.964 138.981 242.696C139.225 242.424 139.523 242.212 139.875 242.06C140.227 241.904 140.623 241.826 141.063 241.826C141.427 241.826 141.763 241.888 142.071 242.012C142.383 242.132 142.651 242.308 142.875 242.54C143.103 242.768 143.281 243.052 143.409 243.392C143.537 243.728 143.601 244.112 143.601 244.544C143.601 244.712 143.583 244.824 143.547 244.88C143.511 244.936 143.443 244.964 143.343 244.964H139.281C139.293 245.348 139.345 245.682 139.437 245.966C139.533 246.25 139.665 246.488 139.833 246.68C140.001 246.868 140.201 247.01 140.433 247.106C140.665 247.198 140.925 247.244 141.213 247.244C141.481 247.244 141.711 247.214 141.903 247.154C142.099 247.09 142.267 247.022 142.407 246.95C142.547 246.878 142.663 246.812 142.755 246.752C142.851 246.688 142.933 246.656 143.001 246.656C143.089 246.656 143.157 246.69 143.205 246.758L143.505 247.148ZM146.046 246.536C146.242 246.8 146.456 246.986 146.688 247.094C146.924 247.202 147.182 247.256 147.462 247.256C148.034 247.256 148.472 247.054 148.776 246.65C149.08 246.246 149.232 245.644 149.232 244.844C149.232 244.1 149.096 243.554 148.824 243.206C148.556 242.854 148.172 242.678 147.672 242.678C147.324 242.678 147.02 242.758 146.76 242.918C146.504 243.078 146.266 243.304 146.046 243.596V246.536ZM146.046 242.798C146.302 242.502 146.59 242.266 146.91 242.09C147.234 241.914 147.606 241.826 148.026 241.826C148.382 241.826 148.702 241.894 148.986 242.03C149.274 242.166 149.518 242.364 149.718 242.624C149.918 242.88 150.07 243.192 150.174 243.56C150.282 243.928 150.336 244.342 150.336 244.802C150.336 245.294 150.276 245.742 150.156 246.146C150.036 246.55 149.862 246.896 149.634 247.184C149.41 247.468 149.136 247.69 148.812 247.85C148.488 248.006 148.124 248.084 147.72 248.084C147.32 248.084 146.982 248.01 146.706 247.862C146.434 247.71 146.196 247.496 145.992 247.22L145.938 247.772C145.906 247.924 145.814 248 145.662 248H144.972V239.162H146.046V242.798Z" fill="#667085"/>
<path d="M201.207 239.402V248H200.187V241.682C200.187 241.598 200.189 241.508 200.193 241.412C200.201 241.316 200.209 241.218 200.217 241.118L197.265 246.494C197.173 246.674 197.033 246.764 196.845 246.764H196.677C196.489 246.764 196.349 246.674 196.257 246.494L193.245 241.094C193.269 241.306 193.281 241.502 193.281 241.682V248H192.261V239.402H193.119C193.223 239.402 193.303 239.412 193.359 239.432C193.415 239.452 193.469 239.508 193.521 239.6L196.491 244.892C196.539 244.988 196.585 245.088 196.629 245.192C196.677 245.296 196.721 245.402 196.761 245.51C196.801 245.402 196.843 245.296 196.887 245.192C196.931 245.084 196.979 244.982 197.031 244.886L199.947 239.6C199.995 239.508 200.047 239.452 200.103 239.432C200.163 239.412 200.245 239.402 200.349 239.402H201.207ZM206.331 245.264C205.839 245.28 205.419 245.32 205.071 245.384C204.727 245.444 204.445 245.524 204.225 245.624C204.009 245.724 203.851 245.842 203.751 245.978C203.655 246.114 203.607 246.266 203.607 246.434C203.607 246.594 203.633 246.732 203.685 246.848C203.737 246.964 203.807 247.06 203.895 247.136C203.987 247.208 204.093 247.262 204.213 247.298C204.337 247.33 204.469 247.346 204.609 247.346C204.797 247.346 204.969 247.328 205.125 247.292C205.281 247.252 205.427 247.196 205.563 247.124C205.703 247.052 205.835 246.966 205.959 246.866C206.087 246.766 206.211 246.652 206.331 246.524V245.264ZM202.881 242.78C203.217 242.456 203.579 242.214 203.967 242.054C204.355 241.894 204.785 241.814 205.257 241.814C205.597 241.814 205.899 241.87 206.163 241.982C206.427 242.094 206.649 242.25 206.829 242.45C207.009 242.65 207.145 242.892 207.237 243.176C207.329 243.46 207.375 243.772 207.375 244.112V248H206.901C206.797 248 206.717 247.984 206.661 247.952C206.605 247.916 206.561 247.848 206.529 247.748L206.409 247.172C206.249 247.32 206.093 247.452 205.941 247.568C205.789 247.68 205.629 247.776 205.461 247.856C205.293 247.932 205.113 247.99 204.921 248.03C204.733 248.074 204.523 248.096 204.291 248.096C204.055 248.096 203.833 248.064 203.625 248C203.417 247.932 203.235 247.832 203.079 247.7C202.927 247.568 202.805 247.402 202.713 247.202C202.625 246.998 202.581 246.758 202.581 246.482C202.581 246.242 202.647 246.012 202.779 245.792C202.911 245.568 203.125 245.37 203.421 245.198C203.717 245.026 204.103 244.886 204.579 244.778C205.055 244.666 205.639 244.602 206.331 244.586V244.112C206.331 243.64 206.229 243.284 206.025 243.044C205.821 242.8 205.523 242.678 205.131 242.678C204.867 242.678 204.645 242.712 204.465 242.78C204.289 242.844 204.135 242.918 204.003 243.002C203.875 243.082 203.763 243.156 203.667 243.224C203.575 243.288 203.483 243.32 203.391 243.32C203.319 243.32 203.257 243.302 203.205 243.266C203.153 243.226 203.109 243.178 203.073 243.122L202.881 242.78ZM210.076 243.14C210.268 242.724 210.504 242.4 210.784 242.168C211.064 241.932 211.406 241.814 211.81 241.814C211.938 241.814 212.06 241.828 212.176 241.856C212.296 241.884 212.402 241.928 212.494 241.988L212.416 242.786C212.392 242.886 212.332 242.936 212.236 242.936C212.18 242.936 212.098 242.924 211.99 242.9C211.882 242.876 211.76 242.864 211.624 242.864C211.432 242.864 211.26 242.892 211.108 242.948C210.96 243.004 210.826 243.088 210.706 243.2C210.59 243.308 210.484 243.444 210.388 243.608C210.296 243.768 210.212 243.952 210.136 244.16V248H209.062V241.922H209.674C209.79 241.922 209.87 241.944 209.914 241.988C209.958 242.032 209.988 242.108 210.004 242.216L210.076 243.14Z" fill="#667085"/>
<path d="M255.712 244.808L254.362 241.31C254.322 241.206 254.28 241.086 254.236 240.95C254.192 240.81 254.15 240.662 254.11 240.506C254.026 240.83 253.94 241.1 253.852 241.316L252.502 244.808H255.712ZM258.136 248H257.236C257.132 248 257.048 247.974 256.984 247.922C256.92 247.87 256.872 247.804 256.84 247.724L256.036 245.648H252.178L251.374 247.724C251.35 247.796 251.304 247.86 251.236 247.916C251.168 247.972 251.084 248 250.984 248H250.084L253.522 239.402H254.698L258.136 248ZM260.126 246.536C260.322 246.8 260.536 246.986 260.768 247.094C261 247.202 261.26 247.256 261.548 247.256C262.116 247.256 262.552 247.054 262.856 246.65C263.16 246.246 263.312 245.67 263.312 244.922C263.312 244.526 263.276 244.186 263.204 243.902C263.136 243.618 263.036 243.386 262.904 243.206C262.772 243.022 262.61 242.888 262.418 242.804C262.226 242.72 262.008 242.678 261.764 242.678C261.416 242.678 261.11 242.758 260.846 242.918C260.586 243.078 260.346 243.304 260.126 243.596V246.536ZM260.072 242.864C260.328 242.548 260.624 242.294 260.96 242.102C261.296 241.91 261.68 241.814 262.112 241.814C262.464 241.814 262.782 241.882 263.066 242.018C263.35 242.15 263.592 242.348 263.792 242.612C263.992 242.872 264.146 243.196 264.254 243.584C264.362 243.972 264.416 244.418 264.416 244.922C264.416 245.37 264.356 245.788 264.236 246.176C264.116 246.56 263.942 246.894 263.714 247.178C263.49 247.458 263.214 247.68 262.886 247.844C262.562 248.004 262.196 248.084 261.788 248.084C261.416 248.084 261.096 248.022 260.828 247.898C260.564 247.77 260.33 247.594 260.126 247.37V250.058H259.052V241.922H259.694C259.846 241.922 259.94 241.996 259.976 242.144L260.072 242.864ZM266.852 243.14C267.044 242.724 267.28 242.4 267.56 242.168C267.84 241.932 268.182 241.814 268.586 241.814C268.714 241.814 268.836 241.828 268.952 241.856C269.072 241.884 269.178 241.928 269.27 241.988L269.192 242.786C269.168 242.886 269.108 242.936 269.012 242.936C268.956 242.936 268.874 242.924 268.766 242.9C268.658 242.876 268.536 242.864 268.4 242.864C268.208 242.864 268.036 242.892 267.884 242.948C267.736 243.004 267.602 243.088 267.482 243.2C267.366 243.308 267.26 243.444 267.164 243.608C267.072 243.768 266.988 243.952 266.912 244.16V248H265.838V241.922H266.45C266.566 241.922 266.646 241.944 266.69 241.988C266.734 242.032 266.764 242.108 266.78 242.216L266.852 243.14ZM271.397 241.922V248H270.329V241.922H271.397ZM271.625 240.014C271.625 240.118 271.603 240.216 271.559 240.308C271.519 240.396 271.463 240.476 271.391 240.548C271.323 240.616 271.241 240.67 271.145 240.71C271.053 240.75 270.955 240.77 270.851 240.77C270.747 240.77 270.649 240.75 270.557 240.71C270.469 240.67 270.391 240.616 270.323 240.548C270.255 240.476 270.201 240.396 270.161 240.308C270.121 240.216 270.101 240.118 270.101 240.014C270.101 239.91 270.121 239.812 270.161 239.72C270.201 239.624 270.255 239.542 270.323 239.474C270.391 239.402 270.469 239.346 270.557 239.306C270.649 239.266 270.747 239.246 270.851 239.246C270.955 239.246 271.053 239.266 271.145 239.306C271.241 239.346 271.323 239.402 271.391 239.474C271.463 239.542 271.519 239.624 271.559 239.72C271.603 239.812 271.625 239.91 271.625 240.014ZM274.316 239.162V248H273.248V239.162H274.316Z" fill="#667085"/>
<path d="M321.869 239.402V248H320.849V241.682C320.849 241.598 320.851 241.508 320.855 241.412C320.863 241.316 320.871 241.218 320.879 241.118L317.927 246.494C317.835 246.674 317.695 246.764 317.507 246.764H317.339C317.151 246.764 317.011 246.674 316.919 246.494L313.907 241.094C313.931 241.306 313.943 241.502 313.943 241.682V248H312.923V239.402H313.781C313.885 239.402 313.965 239.412 314.021 239.432C314.077 239.452 314.131 239.508 314.183 239.6L317.153 244.892C317.201 244.988 317.247 245.088 317.291 245.192C317.339 245.296 317.383 245.402 317.423 245.51C317.463 245.402 317.505 245.296 317.549 245.192C317.593 245.084 317.641 244.982 317.693 244.886L320.609 239.6C320.657 239.508 320.709 239.452 320.765 239.432C320.825 239.412 320.907 239.402 321.011 239.402H321.869ZM326.994 245.264C326.502 245.28 326.082 245.32 325.734 245.384C325.39 245.444 325.108 245.524 324.888 245.624C324.672 245.724 324.514 245.842 324.414 245.978C324.318 246.114 324.27 246.266 324.27 246.434C324.27 246.594 324.296 246.732 324.348 246.848C324.4 246.964 324.47 247.06 324.558 247.136C324.65 247.208 324.756 247.262 324.876 247.298C325 247.33 325.132 247.346 325.272 247.346C325.46 247.346 325.632 247.328 325.788 247.292C325.944 247.252 326.09 247.196 326.226 247.124C326.366 247.052 326.498 246.966 326.622 246.866C326.75 246.766 326.874 246.652 326.994 246.524V245.264ZM323.544 242.78C323.88 242.456 324.242 242.214 324.63 242.054C325.018 241.894 325.448 241.814 325.92 241.814C326.26 241.814 326.562 241.87 326.826 241.982C327.09 242.094 327.312 242.25 327.492 242.45C327.672 242.65 327.808 242.892 327.9 243.176C327.992 243.46 328.038 243.772 328.038 244.112V248H327.564C327.46 248 327.38 247.984 327.324 247.952C327.268 247.916 327.224 247.848 327.192 247.748L327.072 247.172C326.912 247.32 326.756 247.452 326.604 247.568C326.452 247.68 326.292 247.776 326.124 247.856C325.956 247.932 325.776 247.99 325.584 248.03C325.396 248.074 325.186 248.096 324.954 248.096C324.718 248.096 324.496 248.064 324.288 248C324.08 247.932 323.898 247.832 323.742 247.7C323.59 247.568 323.468 247.402 323.376 247.202C323.288 246.998 323.244 246.758 323.244 246.482C323.244 246.242 323.31 246.012 323.442 245.792C323.574 245.568 323.788 245.37 324.084 245.198C324.38 245.026 324.766 244.886 325.242 244.778C325.718 244.666 326.302 244.602 326.994 244.586V244.112C326.994 243.64 326.892 243.284 326.688 243.044C326.484 242.8 326.186 242.678 325.794 242.678C325.53 242.678 325.308 242.712 325.128 242.78C324.952 242.844 324.798 242.918 324.666 243.002C324.538 243.082 324.426 243.156 324.33 243.224C324.238 243.288 324.146 243.32 324.054 243.32C323.982 243.32 323.92 243.302 323.868 243.266C323.816 243.226 323.772 243.178 323.736 243.122L323.544 242.78ZM334.828 241.922L331.438 249.794C331.402 249.874 331.356 249.938 331.3 249.986C331.248 250.034 331.166 250.058 331.054 250.058H330.262L331.372 247.646L328.864 241.922H329.788C329.88 241.922 329.952 241.946 330.004 241.994C330.06 242.038 330.098 242.088 330.118 242.144L331.744 245.972C331.808 246.14 331.862 246.316 331.906 246.5C331.962 246.312 332.022 246.134 332.086 245.966L333.664 242.144C333.688 242.08 333.728 242.028 333.784 241.988C333.844 241.944 333.91 241.922 333.982 241.922H334.828Z" fill="#667085"/>
<path d="M378.981 245.03C378.981 245.51 378.921 245.94 378.801 246.32C378.685 246.7 378.511 247.022 378.279 247.286C378.051 247.546 377.769 247.746 377.433 247.886C377.097 248.026 376.711 248.096 376.275 248.096C375.879 248.096 375.475 248.04 375.063 247.928C375.071 247.812 375.081 247.698 375.093 247.586C375.105 247.47 375.115 247.356 375.123 247.244C375.131 247.176 375.155 247.122 375.195 247.082C375.239 247.038 375.305 247.016 375.393 247.016C375.465 247.016 375.559 247.034 375.675 247.07C375.795 247.106 375.955 247.124 376.155 247.124C376.419 247.124 376.655 247.084 376.863 247.004C377.071 246.924 377.245 246.8 377.385 246.632C377.525 246.464 377.631 246.25 377.703 245.99C377.779 245.726 377.817 245.414 377.817 245.054V239.402H378.981V245.03ZM385.733 241.922V248H385.097C384.945 248 384.849 247.926 384.809 247.778L384.725 247.124C384.461 247.416 384.165 247.652 383.837 247.832C383.509 248.008 383.133 248.096 382.709 248.096C382.377 248.096 382.083 248.042 381.827 247.934C381.575 247.822 381.363 247.666 381.191 247.466C381.019 247.266 380.889 247.024 380.801 246.74C380.717 246.456 380.675 246.142 380.675 245.798V241.922H381.743V245.798C381.743 246.258 381.847 246.614 382.055 246.866C382.267 247.118 382.589 247.244 383.021 247.244C383.337 247.244 383.631 247.17 383.903 247.022C384.179 246.87 384.433 246.662 384.665 246.398V241.922H385.733ZM388.494 242.804C388.626 242.656 388.766 242.522 388.914 242.402C389.062 242.282 389.218 242.18 389.382 242.096C389.55 242.008 389.726 241.942 389.91 241.898C390.098 241.85 390.3 241.826 390.516 241.826C390.848 241.826 391.14 241.882 391.392 241.994C391.648 242.102 391.86 242.258 392.028 242.462C392.2 242.662 392.33 242.904 392.418 243.188C392.506 243.472 392.55 243.786 392.55 244.13V248H391.476V244.13C391.476 243.67 391.37 243.314 391.158 243.062C390.95 242.806 390.632 242.678 390.204 242.678C389.888 242.678 389.592 242.754 389.316 242.906C389.044 243.058 388.792 243.264 388.56 243.524V248H387.486V241.922H388.128C388.28 241.922 388.374 241.996 388.41 242.144L388.494 242.804Z" fill="#667085"/>
<path d="M441.658 245.03C441.658 245.51 441.598 245.94 441.478 246.32C441.362 246.7 441.188 247.022 440.956 247.286C440.728 247.546 440.446 247.746 440.11 247.886C439.774 248.026 439.388 248.096 438.952 248.096C438.556 248.096 438.152 248.04 437.74 247.928C437.748 247.812 437.758 247.698 437.77 247.586C437.782 247.47 437.792 247.356 437.8 247.244C437.808 247.176 437.832 247.122 437.872 247.082C437.916 247.038 437.982 247.016 438.07 247.016C438.142 247.016 438.236 247.034 438.352 247.07C438.472 247.106 438.632 247.124 438.832 247.124C439.096 247.124 439.332 247.084 439.54 247.004C439.748 246.924 439.922 246.8 440.062 246.632C440.202 246.464 440.308 246.25 440.38 245.99C440.456 245.726 440.494 245.414 440.494 245.054V239.402H441.658V245.03ZM448.41 241.922V248H447.774C447.622 248 447.526 247.926 447.486 247.778L447.402 247.124C447.138 247.416 446.842 247.652 446.514 247.832C446.186 248.008 445.81 248.096 445.386 248.096C445.054 248.096 444.76 248.042 444.504 247.934C444.252 247.822 444.04 247.666 443.868 247.466C443.696 247.266 443.566 247.024 443.478 246.74C443.394 246.456 443.352 246.142 443.352 245.798V241.922H444.42V245.798C444.42 246.258 444.524 246.614 444.732 246.866C444.944 247.118 445.266 247.244 445.698 247.244C446.014 247.244 446.308 247.17 446.58 247.022C446.856 246.87 447.11 246.662 447.342 246.398V241.922H448.41ZM451.268 239.162V248H450.2V239.162H451.268Z" fill="#667085"/>
<path d="M500.782 244.808L499.432 241.31C499.392 241.206 499.35 241.086 499.306 240.95C499.262 240.81 499.22 240.662 499.18 240.506C499.096 240.83 499.01 241.1 498.922 241.316L497.572 244.808H500.782ZM503.206 248H502.306C502.202 248 502.118 247.974 502.054 247.922C501.99 247.87 501.942 247.804 501.91 247.724L501.106 245.648H497.248L496.444 247.724C496.42 247.796 496.374 247.86 496.306 247.916C496.238 247.972 496.154 248 496.054 248H495.154L498.592 239.402H499.768L503.206 248ZM508.99 241.922V248H508.354C508.202 248 508.106 247.926 508.066 247.778L507.982 247.124C507.718 247.416 507.422 247.652 507.094 247.832C506.766 248.008 506.39 248.096 505.966 248.096C505.634 248.096 505.34 248.042 505.084 247.934C504.832 247.822 504.62 247.666 504.448 247.466C504.276 247.266 504.146 247.024 504.058 246.74C503.974 246.456 503.932 246.142 503.932 245.798V241.922H505V245.798C505 246.258 505.104 246.614 505.312 246.866C505.524 247.118 505.846 247.244 506.278 247.244C506.594 247.244 506.888 247.17 507.16 247.022C507.436 246.87 507.69 246.662 507.922 246.398V241.922H508.99ZM512.862 245.03C513.078 245.03 513.268 245 513.432 244.94C513.596 244.88 513.734 244.796 513.846 244.688C513.958 244.58 514.042 244.452 514.098 244.304C514.154 244.152 514.182 243.986 514.182 243.806C514.182 243.434 514.068 243.138 513.84 242.918C513.616 242.698 513.29 242.588 512.862 242.588C512.43 242.588 512.1 242.698 511.872 242.918C511.648 243.138 511.536 243.434 511.536 243.806C511.536 243.986 511.564 244.152 511.62 244.304C511.68 244.452 511.766 244.58 511.878 244.688C511.99 244.796 512.128 244.88 512.292 244.94C512.456 245 512.646 245.03 512.862 245.03ZM514.788 248.33C514.788 248.182 514.746 248.062 514.662 247.97C514.578 247.878 514.464 247.806 514.32 247.754C514.18 247.702 514.016 247.666 513.828 247.646C513.64 247.622 513.44 247.604 513.228 247.592C513.02 247.58 512.808 247.568 512.592 247.556C512.376 247.544 512.168 247.524 511.968 247.496C511.744 247.6 511.56 247.732 511.416 247.892C511.276 248.048 511.206 248.232 511.206 248.444C511.206 248.58 511.24 248.706 511.308 248.822C511.38 248.942 511.488 249.044 511.632 249.128C511.776 249.216 511.956 249.284 512.172 249.332C512.392 249.384 512.65 249.41 512.946 249.41C513.234 249.41 513.492 249.384 513.72 249.332C513.948 249.28 514.14 249.206 514.296 249.11C514.456 249.014 514.578 248.9 514.662 248.768C514.746 248.636 514.788 248.49 514.788 248.33ZM515.874 242.162V242.558C515.874 242.69 515.79 242.774 515.622 242.81L514.932 242.9C515.068 243.164 515.136 243.456 515.136 243.776C515.136 244.072 515.078 244.342 514.962 244.586C514.85 244.826 514.694 245.032 514.494 245.204C514.294 245.376 514.054 245.508 513.774 245.6C513.494 245.692 513.19 245.738 512.862 245.738C512.578 245.738 512.31 245.704 512.058 245.636C511.93 245.716 511.832 245.802 511.764 245.894C511.696 245.982 511.662 246.072 511.662 246.164C511.662 246.308 511.72 246.418 511.836 246.494C511.956 246.566 512.112 246.618 512.304 246.65C512.496 246.682 512.714 246.702 512.958 246.71C513.206 246.718 513.458 246.732 513.714 246.752C513.974 246.768 514.226 246.798 514.47 246.842C514.718 246.886 514.938 246.958 515.13 247.058C515.322 247.158 515.476 247.296 515.592 247.472C515.712 247.648 515.772 247.876 515.772 248.156C515.772 248.416 515.706 248.668 515.574 248.912C515.446 249.156 515.26 249.372 515.016 249.56C514.772 249.752 514.472 249.904 514.116 250.016C513.764 250.132 513.366 250.19 512.922 250.19C512.478 250.19 512.09 250.146 511.758 250.058C511.426 249.97 511.15 249.852 510.93 249.704C510.71 249.556 510.544 249.384 510.432 249.188C510.324 248.996 510.27 248.794 510.27 248.582C510.27 248.282 510.364 248.028 510.552 247.82C510.74 247.612 510.998 247.446 511.326 247.322C511.146 247.242 511.002 247.136 510.894 247.004C510.79 246.868 510.738 246.686 510.738 246.458C510.738 246.37 510.754 246.28 510.786 246.188C510.818 246.092 510.866 245.998 510.93 245.906C510.998 245.81 511.08 245.72 511.176 245.636C511.272 245.552 511.384 245.478 511.512 245.414C511.212 245.246 510.978 245.024 510.81 244.748C510.642 244.468 510.558 244.144 510.558 243.776C510.558 243.48 510.614 243.212 510.726 242.972C510.842 242.728 511.002 242.522 511.206 242.354C511.41 242.182 511.652 242.05 511.932 241.958C512.216 241.866 512.526 241.82 512.862 241.82C513.126 241.82 513.372 241.85 513.6 241.91C513.828 241.966 514.036 242.05 514.224 242.162H515.874Z" fill="#667085"/>
<path d="M559.898 240.746C559.862 240.806 559.822 240.852 559.778 240.884C559.738 240.912 559.688 240.926 559.628 240.926C559.56 240.926 559.48 240.892 559.388 240.824C559.296 240.756 559.18 240.682 559.04 240.602C558.904 240.518 558.738 240.442 558.542 240.374C558.35 240.306 558.116 240.272 557.84 240.272C557.58 240.272 557.35 240.308 557.15 240.38C556.954 240.448 556.788 240.542 556.652 240.662C556.52 240.782 556.42 240.924 556.352 241.088C556.284 241.248 556.25 241.422 556.25 241.61C556.25 241.85 556.308 242.05 556.424 242.21C556.544 242.366 556.7 242.5 556.892 242.612C557.088 242.724 557.308 242.822 557.552 242.906C557.8 242.986 558.052 243.07 558.308 243.158C558.568 243.246 558.82 243.346 559.064 243.458C559.312 243.566 559.532 243.704 559.724 243.872C559.92 244.04 560.076 244.246 560.192 244.49C560.312 244.734 560.372 245.034 560.372 245.39C560.372 245.766 560.308 246.12 560.18 246.452C560.052 246.78 559.864 247.066 559.616 247.31C559.372 247.554 559.07 247.746 558.71 247.886C558.354 248.026 557.948 248.096 557.492 248.096C556.932 248.096 556.424 247.996 555.968 247.796C555.512 247.592 555.122 247.318 554.798 246.974L555.134 246.422C555.166 246.378 555.204 246.342 555.248 246.314C555.296 246.282 555.348 246.266 555.404 246.266C555.456 246.266 555.514 246.288 555.578 246.332C555.646 246.372 555.722 246.424 555.806 246.488C555.89 246.552 555.986 246.622 556.094 246.698C556.202 246.774 556.324 246.844 556.46 246.908C556.6 246.972 556.758 247.026 556.934 247.07C557.11 247.11 557.308 247.13 557.528 247.13C557.804 247.13 558.05 247.092 558.266 247.016C558.482 246.94 558.664 246.834 558.812 246.698C558.964 246.558 559.08 246.392 559.16 246.2C559.24 246.008 559.28 245.794 559.28 245.558C559.28 245.298 559.22 245.086 559.1 244.922C558.984 244.754 558.83 244.614 558.638 244.502C558.446 244.39 558.226 244.296 557.978 244.22C557.73 244.14 557.478 244.06 557.222 243.98C556.966 243.896 556.714 243.8 556.466 243.692C556.218 243.584 555.998 243.444 555.806 243.272C555.614 243.1 555.458 242.886 555.338 242.63C555.222 242.37 555.164 242.05 555.164 241.67C555.164 241.366 555.222 241.072 555.338 240.788C555.458 240.504 555.63 240.252 555.854 240.032C556.082 239.812 556.36 239.636 556.688 239.504C557.02 239.372 557.4 239.306 557.828 239.306C558.308 239.306 558.744 239.382 559.136 239.534C559.532 239.686 559.88 239.906 560.18 240.194L559.898 240.746ZM565.857 244.298C565.857 244.05 565.821 243.824 565.749 243.62C565.681 243.412 565.579 243.234 565.443 243.086C565.311 242.934 565.149 242.818 564.957 242.738C564.765 242.654 564.547 242.612 564.303 242.612C563.791 242.612 563.385 242.762 563.085 243.062C562.789 243.358 562.605 243.77 562.533 244.298H565.857ZM566.721 247.148C566.589 247.308 566.431 247.448 566.247 247.568C566.063 247.684 565.865 247.78 565.653 247.856C565.445 247.932 565.229 247.988 565.005 248.024C564.781 248.064 564.559 248.084 564.339 248.084C563.919 248.084 563.531 248.014 563.175 247.874C562.823 247.73 562.517 247.522 562.257 247.25C562.001 246.974 561.801 246.634 561.657 246.23C561.513 245.826 561.441 245.362 561.441 244.838C561.441 244.414 561.505 244.018 561.633 243.65C561.765 243.282 561.953 242.964 562.197 242.696C562.441 242.424 562.739 242.212 563.091 242.06C563.443 241.904 563.839 241.826 564.279 241.826C564.643 241.826 564.979 241.888 565.287 242.012C565.599 242.132 565.867 242.308 566.091 242.54C566.319 242.768 566.497 243.052 566.625 243.392C566.753 243.728 566.817 244.112 566.817 244.544C566.817 244.712 566.799 244.824 566.763 244.88C566.727 244.936 566.659 244.964 566.559 244.964H562.497C562.509 245.348 562.561 245.682 562.653 245.966C562.749 246.25 562.881 246.488 563.049 246.68C563.217 246.868 563.417 247.01 563.649 247.106C563.881 247.198 564.141 247.244 564.429 247.244C564.697 247.244 564.927 247.214 565.119 247.154C565.315 247.09 565.483 247.022 565.623 246.95C565.763 246.878 565.879 246.812 565.971 246.752C566.067 246.688 566.149 246.656 566.217 246.656C566.305 246.656 566.373 246.69 566.421 246.758L566.721 247.148ZM569.262 246.536C569.458 246.8 569.672 246.986 569.904 247.094C570.136 247.202 570.396 247.256 570.684 247.256C571.252 247.256 571.688 247.054 571.992 246.65C572.296 246.246 572.448 245.67 572.448 244.922C572.448 244.526 572.412 244.186 572.34 243.902C572.272 243.618 572.172 243.386 572.04 243.206C571.908 243.022 571.746 242.888 571.554 242.804C571.362 242.72 571.144 242.678 570.9 242.678C570.552 242.678 570.246 242.758 569.982 242.918C569.722 243.078 569.482 243.304 569.262 243.596V246.536ZM569.208 242.864C569.464 242.548 569.76 242.294 570.096 242.102C570.432 241.91 570.816 241.814 571.248 241.814C571.6 241.814 571.918 241.882 572.202 242.018C572.486 242.15 572.728 242.348 572.928 242.612C573.128 242.872 573.282 243.196 573.39 243.584C573.498 243.972 573.552 244.418 573.552 244.922C573.552 245.37 573.492 245.788 573.372 246.176C573.252 246.56 573.078 246.894 572.85 247.178C572.626 247.458 572.35 247.68 572.022 247.844C571.698 248.004 571.332 248.084 570.924 248.084C570.552 248.084 570.232 248.022 569.964 247.898C569.7 247.77 569.466 247.594 569.262 247.37V250.058H568.188V241.922H568.83C568.982 241.922 569.076 241.996 569.112 242.144L569.208 242.864ZM576.759 248.096C576.279 248.096 575.909 247.962 575.649 247.694C575.393 247.426 575.265 247.04 575.265 246.536V242.816H574.533C574.469 242.816 574.415 242.798 574.371 242.762C574.327 242.722 574.305 242.662 574.305 242.582V242.156L575.301 242.03L575.547 240.152C575.559 240.092 575.585 240.044 575.625 240.008C575.669 239.968 575.725 239.948 575.793 239.948H576.333V242.042H578.091V242.816H576.333V246.464C576.333 246.72 576.395 246.91 576.519 247.034C576.643 247.158 576.803 247.22 576.999 247.22C577.111 247.22 577.207 247.206 577.287 247.178C577.371 247.146 577.443 247.112 577.503 247.076C577.563 247.04 577.613 247.008 577.653 246.98C577.697 246.948 577.735 246.932 577.767 246.932C577.823 246.932 577.873 246.966 577.917 247.034L578.229 247.544C578.045 247.716 577.823 247.852 577.563 247.952C577.303 248.048 577.035 248.096 576.759 248.096Z" fill="#667085"/>
<path d="M626.328 243.704C626.328 244.348 626.226 244.94 626.022 245.48C625.818 246.016 625.53 246.478 625.158 246.866C624.786 247.254 624.338 247.556 623.814 247.772C623.294 247.984 622.718 248.09 622.086 248.09C621.454 248.09 620.878 247.984 620.358 247.772C619.838 247.556 619.392 247.254 619.02 246.866C618.648 246.478 618.36 246.016 618.156 245.48C617.952 244.94 617.85 244.348 617.85 243.704C617.85 243.06 617.952 242.47 618.156 241.934C618.36 241.394 618.648 240.93 619.02 240.542C619.392 240.15 619.838 239.846 620.358 239.63C620.878 239.414 621.454 239.306 622.086 239.306C622.718 239.306 623.294 239.414 623.814 239.63C624.338 239.846 624.786 240.15 625.158 240.542C625.53 240.93 625.818 241.394 626.022 241.934C626.226 242.47 626.328 243.06 626.328 243.704ZM625.134 243.704C625.134 243.176 625.062 242.702 624.918 242.282C624.774 241.862 624.57 241.508 624.306 241.22C624.042 240.928 623.722 240.704 623.346 240.548C622.97 240.392 622.55 240.314 622.086 240.314C621.626 240.314 621.208 240.392 620.832 240.548C620.456 240.704 620.134 240.928 619.866 241.22C619.602 241.508 619.398 241.862 619.254 242.282C619.11 242.702 619.038 243.176 619.038 243.704C619.038 244.232 619.11 244.706 619.254 245.126C619.398 245.542 619.602 245.896 619.866 246.188C620.134 246.476 620.456 246.698 620.832 246.854C621.208 247.006 621.626 247.082 622.086 247.082C622.55 247.082 622.97 247.006 623.346 246.854C623.722 246.698 624.042 246.476 624.306 246.188C624.57 245.896 624.774 245.542 624.918 245.126C625.062 244.706 625.134 244.232 625.134 243.704ZM631.949 243.002C631.917 243.046 631.885 243.08 631.853 243.104C631.821 243.128 631.777 243.14 631.721 243.14C631.661 243.14 631.595 243.116 631.523 243.068C631.451 243.016 631.361 242.96 631.253 242.9C631.149 242.84 631.019 242.786 630.863 242.738C630.711 242.686 630.523 242.66 630.299 242.66C629.999 242.66 629.735 242.714 629.507 242.822C629.279 242.926 629.087 243.078 628.931 243.278C628.779 243.478 628.663 243.72 628.583 244.004C628.507 244.288 628.469 244.606 628.469 244.958C628.469 245.326 628.511 245.654 628.595 245.942C628.679 246.226 628.797 246.466 628.949 246.662C629.105 246.854 629.291 247.002 629.507 247.106C629.727 247.206 629.973 247.256 630.245 247.256C630.505 247.256 630.719 247.226 630.887 247.166C631.055 247.102 631.193 247.032 631.301 246.956C631.413 246.88 631.505 246.812 631.577 246.752C631.653 246.688 631.727 246.656 631.799 246.656C631.887 246.656 631.955 246.69 632.003 246.758L632.303 247.148C632.171 247.312 632.021 247.452 631.853 247.568C631.685 247.684 631.503 247.782 631.307 247.862C631.115 247.938 630.913 247.994 630.701 248.03C630.489 248.066 630.273 248.084 630.053 248.084C629.673 248.084 629.319 248.014 628.991 247.874C628.667 247.734 628.385 247.532 628.145 247.268C627.905 247 627.717 246.672 627.581 246.284C627.445 245.896 627.377 245.454 627.377 244.958C627.377 244.506 627.439 244.088 627.563 243.704C627.691 243.32 627.875 242.99 628.115 242.714C628.359 242.434 628.657 242.216 629.009 242.06C629.365 241.904 629.773 241.826 630.233 241.826C630.661 241.826 631.037 241.896 631.361 242.036C631.689 242.172 631.979 242.366 632.231 242.618L631.949 243.002ZM635.376 248.096C634.896 248.096 634.526 247.962 634.266 247.694C634.01 247.426 633.882 247.04 633.882 246.536V242.816H633.15C633.086 242.816 633.032 242.798 632.988 242.762C632.944 242.722 632.922 242.662 632.922 242.582V242.156L633.918 242.03L634.164 240.152C634.176 240.092 634.202 240.044 634.242 240.008C634.286 239.968 634.342 239.948 634.41 239.948H634.95V242.042H636.708V242.816H634.95V246.464C634.95 246.72 635.012 246.91 635.136 247.034C635.26 247.158 635.42 247.22 635.616 247.22C635.728 247.22 635.824 247.206 635.904 247.178C635.988 247.146 636.06 247.112 636.12 247.076C636.18 247.04 636.23 247.008 636.27 246.98C636.314 246.948 636.352 246.932 636.384 246.932C636.44 246.932 636.49 246.966 636.534 247.034L636.846 247.544C636.662 247.716 636.44 247.852 636.18 247.952C635.92 248.048 635.652 248.096 635.376 248.096Z" fill="#667085"/>
<path d="M684.975 239.402V248H684.393C684.301 248 684.223 247.984 684.159 247.952C684.099 247.92 684.039 247.866 683.979 247.79L679.005 241.31C679.013 241.41 679.019 241.508 679.023 241.604C679.027 241.7 679.029 241.79 679.029 241.874V248H678.009V239.402H678.609C678.661 239.402 678.705 239.406 678.741 239.414C678.777 239.418 678.809 239.428 678.837 239.444C678.865 239.456 678.893 239.476 678.921 239.504C678.949 239.528 678.979 239.56 679.011 239.6L683.985 246.074C683.977 245.97 683.969 245.87 683.961 245.774C683.957 245.674 683.955 245.58 683.955 245.492V239.402H684.975ZM689.355 241.826C689.799 241.826 690.199 241.9 690.555 242.048C690.911 242.196 691.215 242.406 691.467 242.678C691.719 242.95 691.911 243.28 692.043 243.668C692.179 244.052 692.247 244.482 692.247 244.958C692.247 245.438 692.179 245.87 692.043 246.254C691.911 246.638 691.719 246.966 691.467 247.238C691.215 247.51 690.911 247.72 690.555 247.868C690.199 248.012 689.799 248.084 689.355 248.084C688.907 248.084 688.503 248.012 688.143 247.868C687.787 247.72 687.483 247.51 687.231 247.238C686.979 246.966 686.785 246.638 686.649 246.254C686.517 245.87 686.451 245.438 686.451 244.958C686.451 244.482 686.517 244.052 686.649 243.668C686.785 243.28 686.979 242.95 687.231 242.678C687.483 242.406 687.787 242.196 688.143 242.048C688.503 241.9 688.907 241.826 689.355 241.826ZM689.355 247.25C689.955 247.25 690.403 247.05 690.699 246.65C690.995 246.246 691.143 245.684 691.143 244.964C691.143 244.24 690.995 243.676 690.699 243.272C690.403 242.868 689.955 242.666 689.355 242.666C689.051 242.666 688.785 242.718 688.557 242.822C688.333 242.926 688.145 243.076 687.993 243.272C687.845 243.468 687.733 243.71 687.657 243.998C687.585 244.282 687.549 244.604 687.549 244.964C687.549 245.684 687.697 246.246 687.993 246.65C688.293 247.05 688.747 247.25 689.355 247.25ZM698.706 241.922L696.228 248H695.268L692.79 241.922H693.66C693.748 241.922 693.82 241.944 693.876 241.988C693.932 242.032 693.97 242.084 693.99 242.144L695.532 246.056C695.58 246.204 695.622 246.348 695.658 246.488C695.694 246.628 695.728 246.768 695.76 246.908C695.792 246.768 695.826 246.628 695.862 246.488C695.898 246.348 695.942 246.204 695.994 246.056L697.554 242.144C697.578 242.08 697.618 242.028 697.674 241.988C697.73 241.944 697.796 241.922 697.872 241.922H698.706Z" fill="#667085"/>
<path d="M746.556 243.704C746.556 244.348 746.454 244.934 746.25 245.462C746.046 245.99 745.758 246.442 745.386 246.818C745.014 247.194 744.566 247.486 744.042 247.694C743.522 247.898 742.946 248 742.314 248H739.104V239.402H742.314C742.946 239.402 743.522 239.506 744.042 239.714C744.566 239.918 745.014 240.21 745.386 240.59C745.758 240.966 746.046 241.418 746.25 241.946C746.454 242.474 746.556 243.06 746.556 243.704ZM745.362 243.704C745.362 243.176 745.29 242.704 745.146 242.288C745.002 241.872 744.798 241.52 744.534 241.232C744.27 240.944 743.95 240.724 743.574 240.572C743.198 240.42 742.778 240.344 742.314 240.344H740.268V247.058H742.314C742.778 247.058 743.198 246.982 743.574 246.83C743.95 246.678 744.27 246.46 744.534 246.176C744.798 245.888 745.002 245.536 745.146 245.12C745.29 244.704 745.362 244.232 745.362 243.704ZM752.027 244.298C752.027 244.05 751.991 243.824 751.919 243.62C751.851 243.412 751.749 243.234 751.613 243.086C751.481 242.934 751.319 242.818 751.127 242.738C750.935 242.654 750.717 242.612 750.473 242.612C749.961 242.612 749.555 242.762 749.255 243.062C748.959 243.358 748.775 243.77 748.703 244.298H752.027ZM752.891 247.148C752.759 247.308 752.601 247.448 752.417 247.568C752.233 247.684 752.035 247.78 751.823 247.856C751.615 247.932 751.399 247.988 751.175 248.024C750.951 248.064 750.729 248.084 750.509 248.084C750.089 248.084 749.701 248.014 749.345 247.874C748.993 247.73 748.687 247.522 748.427 247.25C748.171 246.974 747.971 246.634 747.827 246.23C747.683 245.826 747.611 245.362 747.611 244.838C747.611 244.414 747.675 244.018 747.803 243.65C747.935 243.282 748.123 242.964 748.367 242.696C748.611 242.424 748.909 242.212 749.261 242.06C749.613 241.904 750.009 241.826 750.449 241.826C750.813 241.826 751.149 241.888 751.457 242.012C751.769 242.132 752.037 242.308 752.261 242.54C752.489 242.768 752.667 243.052 752.795 243.392C752.923 243.728 752.987 244.112 752.987 244.544C752.987 244.712 752.969 244.824 752.933 244.88C752.897 244.936 752.829 244.964 752.729 244.964H748.667C748.679 245.348 748.731 245.682 748.823 245.966C748.919 246.25 749.051 246.488 749.219 246.68C749.387 246.868 749.587 247.01 749.819 247.106C750.051 247.198 750.311 247.244 750.599 247.244C750.867 247.244 751.097 247.214 751.289 247.154C751.485 247.09 751.653 247.022 751.793 246.95C751.933 246.878 752.049 246.812 752.141 246.752C752.237 246.688 752.319 246.656 752.387 246.656C752.475 246.656 752.543 246.69 752.591 246.758L752.891 247.148ZM758.589 243.002C758.557 243.046 758.525 243.08 758.493 243.104C758.461 243.128 758.417 243.14 758.361 243.14C758.301 243.14 758.235 243.116 758.163 243.068C758.091 243.016 758.001 242.96 757.893 242.9C757.789 242.84 757.659 242.786 757.503 242.738C757.351 242.686 757.163 242.66 756.939 242.66C756.639 242.66 756.375 242.714 756.147 242.822C755.919 242.926 755.727 243.078 755.571 243.278C755.419 243.478 755.303 243.72 755.223 244.004C755.147 244.288 755.109 244.606 755.109 244.958C755.109 245.326 755.151 245.654 755.235 245.942C755.319 246.226 755.437 246.466 755.589 246.662C755.745 246.854 755.931 247.002 756.147 247.106C756.367 247.206 756.613 247.256 756.885 247.256C757.145 247.256 757.359 247.226 757.527 247.166C757.695 247.102 757.833 247.032 757.941 246.956C758.053 246.88 758.145 246.812 758.217 246.752C758.293 246.688 758.367 246.656 758.439 246.656C758.527 246.656 758.595 246.69 758.643 246.758L758.943 247.148C758.811 247.312 758.661 247.452 758.493 247.568C758.325 247.684 758.143 247.782 757.947 247.862C757.755 247.938 757.553 247.994 757.341 248.03C757.129 248.066 756.913 248.084 756.693 248.084C756.313 248.084 755.959 248.014 755.631 247.874C755.307 247.734 755.025 247.532 754.785 247.268C754.545 247 754.357 246.672 754.221 246.284C754.085 245.896 754.017 245.454 754.017 244.958C754.017 244.506 754.079 244.088 754.203 243.704C754.331 243.32 754.515 242.99 754.755 242.714C754.999 242.434 755.297 242.216 755.649 242.06C756.005 241.904 756.413 241.826 756.873 241.826C757.301 241.826 757.677 241.896 758.001 242.036C758.329 242.172 758.619 242.366 758.871 242.618L758.589 243.002Z" fill="#667085"/>
</g>
<defs>
<filter id="filter0_d_1597_1866" x="321" y="-9" width="143" height="94" filterUnits="userSpaceOnUse" color-interpolation-filters="sRGB">
<feFlood flood-opacity="0" result="BackgroundImageFix"/>
<feColorMatrix in="SourceAlpha" type="matrix" values="0 0 0 0 0 0 0 0 0 0 0 0 0 0 0 0 0 0 127 0" result="hardAlpha"/>
<feOffset dy="4"/>
<feGaussianBlur stdDeviation="15"/>
<feComposite in2="hardAlpha" operator="out"/>
<feColorMatrix type="matrix" values="0 0 0 0 0.180392 0 0 0 0 0.176471 0 0 0 0 0.454902 0 0 0 0.1 0"/>
<feBlend mode="normal" in2="BackgroundImageFix" result="effect1_dropShadow_1597_1866"/>
<feBlend mode="normal" in="SourceGraphic" in2="effect1_dropShadow_1597_1866" result="shape"/>
</filter>
<linearGradient id="paint0_linear_1597_1866" x1="412.5" y1="-38.7133" x2="412.5" y2="217.171" gradientUnits="userSpaceOnUse">
<stop stop-color="#04BD4B"/>
<stop offset="0.998794" stop-color="white" stop-opacity="0"/>
</linearGradient>
<clipPath id="clip0_1597_1866">
<rect width="777" height="252" fill="white"/>
</clipPath>
<clipPath id="clip1_1597_1866">
<rect width="729" height="218" fill="white" transform="translate(48 8)"/>
</clipPath>
</defs>
</svg>
