<svg width="225" height="188" viewBox="0 0 225 188" fill="none" xmlns="http://www.w3.org/2000/svg">
<path d="M4.30426 154.994C5.33506 154.449 16.9693 149.899 74.8477 174.823C74.679 175.035 74.6074 175.135 74.6074 175.135C74.6074 175.135 14.4372 193.853 2.64799 170.794C-0.872487 163.929 0.136287 159.202 4.20373 155.047L4.30426 154.994Z" fill="#04BD4B" fill-opacity="0.2"/>
<path d="M198.838 164.426C186.263 174.191 166.543 181.278 147.516 171.853C150.522 170.079 153.628 168.251 156.796 166.36C175.904 155.019 192.736 162.607 198.838 164.426Z" fill="#04BD4B" fill-opacity="0.2"/>
<path d="M221.362 44.3287C234.209 143.146 203.678 161.08 200.279 163.805C199.295 164.593 198.896 164.536 197.408 164.182L197.383 164.195C191.086 162.653 175.905 155.018 156.796 166.358C153.628 168.249 150.521 170.077 147.516 171.852C128.022 183.272 112.28 191.32 100.939 186.649C91.3192 182.116 82.6456 178.193 74.8479 174.823C16.9695 149.899 5.33525 154.448 4.30444 154.994C5.50051 154.392 16.4726 148.774 31.2463 138.895C31.2966 138.868 31.3468 138.841 31.3576 138.805C51.1047 125.586 77.5501 104.754 96.559 77.9564C109.5 59.734 122.159 13.5382 146.585 4.47406C196.785 -12.8243 219.278 24.2287 221.362 44.3287Z" fill="#04BD4B"/>
<path d="M165.855 42.595C167.413 38.7942 167.261 35.2181 165.515 34.6074C163.77 33.9968 161.091 36.5829 159.533 40.3837C157.975 44.1845 158.127 47.7607 159.872 48.3713C161.618 48.9819 164.296 46.3958 165.855 42.595Z" fill="white"/>
<path d="M197.818 47.4448C198.922 43.5107 198.353 39.9706 196.546 39.5378C194.739 39.105 192.379 41.9435 191.275 45.8776C190.17 49.8117 190.74 53.3518 192.547 53.7846C194.354 54.2174 196.714 51.3789 197.818 47.4448Z" fill="white"/>
<path d="M178.362 61.8893C178.1 61.8891 177.846 61.8062 177.642 61.6543C177.438 61.5024 177.297 61.2908 177.241 61.0544C177.037 60.1987 176.126 57.6668 174.683 57.2905C173.24 56.9142 170.409 58.3752 169.263 59.1416C169.017 59.3065 168.709 59.3742 168.409 59.3298C168.108 59.2854 167.839 59.1325 167.661 58.9048C167.482 58.677 167.409 58.3931 167.457 58.1155C167.505 57.8378 167.67 57.5892 167.917 57.4243C168.368 57.1224 172.411 54.4953 175.306 55.2499C178.326 56.0369 179.374 60.1383 179.484 60.6035C179.52 60.7583 179.519 60.9188 179.479 61.073C179.44 61.2272 179.363 61.3713 179.256 61.4947C179.148 61.6181 179.012 61.7176 178.857 61.7859C178.702 61.8542 178.533 61.8895 178.361 61.8893H178.362Z" fill="white"/>
</svg>
