<svg width="22" height="22" viewBox="0 0 22 22" fill="none" xmlns="http://www.w3.org/2000/svg">
<path fill-rule="evenodd" clip-rule="evenodd" d="M8 0.5C7.30381 0.5 6.63613 0.776562 6.14384 1.26884C5.65156 1.76113 5.375 2.42881 5.375 3.125V5H3.5C2.70435 5 1.94129 5.31607 1.37868 5.87868C0.816071 6.44129 0.5 7.20435 0.5 8V18.5C0.5 19.2956 0.816071 20.0587 1.37868 20.6213C1.94129 21.1839 2.70435 21.5 3.5 21.5H18.5C19.2956 21.5 20.0587 21.1839 20.6213 20.6213C21.1839 20.0587 21.5 19.2956 21.5 18.5V8C21.5 7.20435 21.1839 6.44129 20.6213 5.87868C20.0587 5.31607 19.2956 5 18.5 5H16.625V3.125C16.625 2.42881 16.3484 1.76113 15.8562 1.26884C15.3639 0.776562 14.6962 0.5 14 0.5H8ZM14.375 5V3.125C14.375 3.02554 14.3355 2.93016 14.2652 2.85984C14.1948 2.78951 14.0995 2.75 14 2.75H8C7.90054 2.75 7.80516 2.78951 7.73483 2.85984C7.66451 2.93016 7.625 3.02554 7.625 3.125V5H14.375ZM3.5 7.25H18.5C18.6989 7.25 18.8897 7.32902 19.0303 7.46967C19.171 7.61032 19.25 7.80109 19.25 8V9.5H2.75V8C2.75 7.80109 2.82902 7.61032 2.96967 7.46967C3.11032 7.32902 3.30109 7.25 3.5 7.25ZM2.75 11.75V18.5C2.75 18.6989 2.82902 18.8897 2.96967 19.0303C3.11032 19.171 3.30109 19.25 3.5 19.25H18.5C18.6989 19.25 18.8897 19.171 19.0303 19.0303C19.171 18.8897 19.25 18.6989 19.25 18.5V11.75H12.5V14H9.5V11.75H2.75Z" fill="#6A6B6C"/>
</svg>
