<svg width="232" height="168" viewBox="0 0 232 168" fill="none" xmlns="http://www.w3.org/2000/svg">
<circle cx="117.5" cy="80" r="80" fill="#EAECF0"/>
<circle cx="33.5" cy="20" r="8" fill="#F2F4F7"/>
<circle cx="205.5" cy="126" r="6" fill="#F2F4F7"/>
<circle cx="32.5" cy="138" r="10" fill="#F2F4F7"/>
<circle cx="217.5" cy="38" r="10" fill="#F2F4F7"/>
<circle cx="198.5" cy="11" r="7" fill="#F2F4F7"/>
<g filter="url(#filter0_dd_2579_13007)">
<path d="M63.579 124.214L116.03 99.7552C118.664 98.5272 119.803 95.3969 118.575 92.7634L87.5995 26.3361L66.6241 18.7017L23.7095 38.7132C21.076 39.9412 19.9367 43.0715 21.1647 45.7049L56.5872 121.669C57.8152 124.302 60.9456 125.442 63.579 124.214Z" fill="url(#paint0_linear_2579_13007)"/>
<path d="M66.6248 18.7017L87.6001 26.3361L73.2952 33.0066L66.6248 18.7017Z" fill="#D0D5DD"/>
</g>
<g filter="url(#filter1_dd_2579_13007)">
<path d="M88.6519 106.339H146.525C149.431 106.339 151.787 103.984 151.787 101.078V27.7837L136.003 12H88.6519C85.7462 12 83.3906 14.3555 83.3906 17.2612V101.078C83.3906 103.984 85.7462 106.339 88.6519 106.339Z" fill="url(#paint1_linear_2579_13007)"/>
<path d="M136.004 12L151.788 27.7837H136.004V12Z" fill="#D0D5DD"/>
</g>
<g filter="url(#filter2_dd_2579_13007)">
<path d="M118.412 99.724L170.864 124.182C173.497 125.41 176.627 124.271 177.856 121.638L208.831 55.2103L201.197 34.2349L158.282 14.2235C155.649 12.9955 152.518 14.1348 151.29 16.7683L115.868 92.7322C114.64 95.3657 115.779 98.496 118.412 99.724Z" fill="url(#paint2_linear_2579_13007)"/>
<path d="M201.197 34.235L208.832 55.2104L194.527 48.5399L201.197 34.235Z" fill="#D0D5DD"/>
</g>
<g filter="url(#filter3_b_2579_13007)">
<rect x="89.5" y="88" width="56" height="56" rx="28" fill="#04BD4B"/>
<g clip-path="url(#clip0_2579_13007)">
<path d="M122.167 120.667L117.5 116M117.5 116L112.833 120.667M117.5 116V126.5M127.288 123.455C128.426 122.835 129.325 121.853 129.843 120.665C130.361 119.477 130.469 118.15 130.149 116.894C129.83 115.638 129.101 114.525 128.078 113.729C127.055 112.933 125.796 112.501 124.5 112.5H123.03C122.677 111.134 122.019 109.866 121.105 108.791C120.191 107.716 119.046 106.862 117.754 106.294C116.463 105.726 115.06 105.457 113.65 105.509C112.24 105.561 110.861 105.932 109.615 106.594C108.369 107.256 107.289 108.192 106.457 109.331C105.625 110.47 105.062 111.783 104.81 113.171C104.558 114.559 104.625 115.987 105.004 117.345C105.383 118.704 106.066 119.959 107 121.017" stroke="white" stroke-width="2.33333" stroke-linecap="round" stroke-linejoin="round"/>
</g>
</g>
<defs>
<filter id="filter0_dd_2579_13007" x="-1.05884" y="12.0312" width="141.857" height="154.406" filterUnits="userSpaceOnUse" color-interpolation-filters="sRGB">
<feFlood flood-opacity="0" result="BackgroundImageFix"/>
<feColorMatrix in="SourceAlpha" type="matrix" values="0 0 0 0 0 0 0 0 0 0 0 0 0 0 0 0 0 0 127 0" result="hardAlpha"/>
<feMorphology radius="4" operator="erode" in="SourceAlpha" result="effect1_dropShadow_2579_13007"/>
<feOffset dy="8"/>
<feGaussianBlur stdDeviation="4"/>
<feColorMatrix type="matrix" values="0 0 0 0 0.0627451 0 0 0 0 0.0941176 0 0 0 0 0.156863 0 0 0 0.03 0"/>
<feBlend mode="normal" in2="BackgroundImageFix" result="effect1_dropShadow_2579_13007"/>
<feColorMatrix in="SourceAlpha" type="matrix" values="0 0 0 0 0 0 0 0 0 0 0 0 0 0 0 0 0 0 127 0" result="hardAlpha"/>
<feMorphology radius="4" operator="erode" in="SourceAlpha" result="effect2_dropShadow_2579_13007"/>
<feOffset dy="20"/>
<feGaussianBlur stdDeviation="12"/>
<feColorMatrix type="matrix" values="0 0 0 0 0.0627451 0 0 0 0 0.0941176 0 0 0 0 0.156863 0 0 0 0.08 0"/>
<feBlend mode="normal" in2="effect1_dropShadow_2579_13007" result="effect2_dropShadow_2579_13007"/>
<feBlend mode="normal" in="SourceGraphic" in2="effect2_dropShadow_2579_13007" result="shape"/>
</filter>
<filter id="filter1_dd_2579_13007" x="63.3906" y="12" width="108.397" height="134.339" filterUnits="userSpaceOnUse" color-interpolation-filters="sRGB">
<feFlood flood-opacity="0" result="BackgroundImageFix"/>
<feColorMatrix in="SourceAlpha" type="matrix" values="0 0 0 0 0 0 0 0 0 0 0 0 0 0 0 0 0 0 127 0" result="hardAlpha"/>
<feMorphology radius="4" operator="erode" in="SourceAlpha" result="effect1_dropShadow_2579_13007"/>
<feOffset dy="8"/>
<feGaussianBlur stdDeviation="4"/>
<feColorMatrix type="matrix" values="0 0 0 0 0.0627451 0 0 0 0 0.0941176 0 0 0 0 0.156863 0 0 0 0.03 0"/>
<feBlend mode="normal" in2="BackgroundImageFix" result="effect1_dropShadow_2579_13007"/>
<feColorMatrix in="SourceAlpha" type="matrix" values="0 0 0 0 0 0 0 0 0 0 0 0 0 0 0 0 0 0 127 0" result="hardAlpha"/>
<feMorphology radius="4" operator="erode" in="SourceAlpha" result="effect2_dropShadow_2579_13007"/>
<feOffset dy="20"/>
<feGaussianBlur stdDeviation="12"/>
<feColorMatrix type="matrix" values="0 0 0 0 0.0627451 0 0 0 0 0.0941176 0 0 0 0 0.156863 0 0 0 0.08 0"/>
<feBlend mode="normal" in2="effect1_dropShadow_2579_13007" result="effect2_dropShadow_2579_13007"/>
<feBlend mode="normal" in="SourceGraphic" in2="effect2_dropShadow_2579_13007" result="shape"/>
</filter>
<filter id="filter2_dd_2579_13007" x="93.644" y="12" width="141.857" height="154.406" filterUnits="userSpaceOnUse" color-interpolation-filters="sRGB">
<feFlood flood-opacity="0" result="BackgroundImageFix"/>
<feColorMatrix in="SourceAlpha" type="matrix" values="0 0 0 0 0 0 0 0 0 0 0 0 0 0 0 0 0 0 127 0" result="hardAlpha"/>
<feMorphology radius="4" operator="erode" in="SourceAlpha" result="effect1_dropShadow_2579_13007"/>
<feOffset dy="8"/>
<feGaussianBlur stdDeviation="4"/>
<feColorMatrix type="matrix" values="0 0 0 0 0.0627451 0 0 0 0 0.0941176 0 0 0 0 0.156863 0 0 0 0.03 0"/>
<feBlend mode="normal" in2="BackgroundImageFix" result="effect1_dropShadow_2579_13007"/>
<feColorMatrix in="SourceAlpha" type="matrix" values="0 0 0 0 0 0 0 0 0 0 0 0 0 0 0 0 0 0 127 0" result="hardAlpha"/>
<feMorphology radius="4" operator="erode" in="SourceAlpha" result="effect2_dropShadow_2579_13007"/>
<feOffset dy="20"/>
<feGaussianBlur stdDeviation="12"/>
<feColorMatrix type="matrix" values="0 0 0 0 0.0627451 0 0 0 0 0.0941176 0 0 0 0 0.156863 0 0 0 0.08 0"/>
<feBlend mode="normal" in2="effect1_dropShadow_2579_13007" result="effect2_dropShadow_2579_13007"/>
<feBlend mode="normal" in="SourceGraphic" in2="effect2_dropShadow_2579_13007" result="shape"/>
</filter>
<filter id="filter3_b_2579_13007" x="81.5" y="80" width="72" height="72" filterUnits="userSpaceOnUse" color-interpolation-filters="sRGB">
<feFlood flood-opacity="0" result="BackgroundImageFix"/>
<feGaussianBlur in="BackgroundImageFix" stdDeviation="4"/>
<feComposite in2="SourceAlpha" operator="in" result="effect1_backgroundBlur_2579_13007"/>
<feBlend mode="normal" in="SourceGraphic" in2="effect1_backgroundBlur_2579_13007" result="shape"/>
</filter>
<linearGradient id="paint0_linear_2579_13007" x1="60.4975" y1="124.418" x2="18.698" y2="49.0089" gradientUnits="userSpaceOnUse">
<stop stop-color="#E4E7EC"/>
<stop offset="1" stop-color="#F9FAFB"/>
</linearGradient>
<linearGradient id="paint1_linear_2579_13007" x1="85.7725" y1="105.223" x2="79.7587" y2="19.2131" gradientUnits="userSpaceOnUse">
<stop stop-color="#E4E7EC"/>
<stop offset="1" stop-color="#F9FAFB"/>
</linearGradient>
<linearGradient id="paint2_linear_2579_13007" x1="116.275" y1="97.4951" x2="147.174" y2="17.0024" gradientUnits="userSpaceOnUse">
<stop stop-color="#E4E7EC"/>
<stop offset="1" stop-color="#F9FAFB"/>
</linearGradient>
<clipPath id="clip0_2579_13007">
<rect width="28" height="28" fill="white" transform="translate(103.5 102)"/>
</clipPath>
</defs>
</svg>
