<svg width="237" height="186" viewBox="0 0 237 186" fill="none" xmlns="http://www.w3.org/2000/svg">
<path d="M192.372 0H49.3937C42.8132 0 37.4788 5.94822 37.4788 13.2857V172.714C37.4788 180.052 42.8132 186 49.3937 186H192.372C198.953 186 204.287 180.052 204.287 172.714V13.2857C204.287 5.94822 198.953 0 192.372 0Z" fill="url(#paint0_linear_2579_16927)"/>
<g filter="url(#filter0_d_2579_16927)">
<path d="M173.309 13.2856H12.4574C9.16724 13.2856 6.5 16.2598 6.5 19.9285V53.1428C6.5 56.8115 9.16724 59.7856 12.4574 59.7856H173.309C176.599 59.7856 179.266 56.8115 179.266 53.1428V19.9285C179.266 16.2598 176.599 13.2856 173.309 13.2856Z" fill="white"/>
</g>
<path d="M88.7129 23.9146H57.7341C55.76 23.9146 54.1597 25.699 54.1597 27.9003C54.1597 30.1015 55.76 31.886 57.7341 31.886H88.7129C90.687 31.886 92.2873 30.1015 92.2873 27.9003C92.2873 25.699 90.687 23.9146 88.7129 23.9146Z" fill="#04BD4B" fill-opacity="0.2"/>
<path d="M110.16 41.186H57.7341C55.76 41.186 54.1597 42.9705 54.1597 45.1717C54.1597 47.373 55.76 49.1575 57.7341 49.1575H110.16C112.134 49.1575 113.734 47.373 113.734 45.1717C113.734 42.9705 112.134 41.186 110.16 41.186Z" fill="#04BD4B" fill-opacity="0.1"/>
<path d="M38.6702 17.2715H16.0319C12.7417 17.2715 10.0745 20.2456 10.0745 23.9143V49.1572C10.0745 52.8259 12.7417 55.8001 16.0319 55.8001H38.6702C41.9604 55.8001 44.6277 52.8259 44.6277 49.1572V23.9143C44.6277 20.2456 41.9604 17.2715 38.6702 17.2715Z" fill="#04BD4B"/>
<path d="M24.6369 40.8928H27.0199L27.0461 39.8698C27.0461 38.5253 27.8063 38.1745 28.881 37.7946C29.9591 37.4526 30.908 36.7286 31.5843 35.7319C32.2606 34.7352 32.6274 33.5202 32.6294 32.2704C32.653 31.5073 32.5343 30.7471 32.2808 30.0378C32.0273 29.3286 31.6445 28.6857 31.1566 28.15C30.6688 27.6142 30.0865 27.1972 29.4466 26.9254C28.8067 26.6536 28.1232 26.5328 27.4393 26.5708C26.7166 26.5532 25.9982 26.6995 25.3277 27.0009C24.6571 27.3022 24.0485 27.7522 23.5387 28.3237C23.0288 28.8952 22.6284 29.5762 22.3617 30.3254C22.095 31.0746 21.9675 31.8764 21.9871 32.6822H24.4511C24.4417 32.2373 24.5121 31.7948 24.6581 31.3806C24.8041 30.9664 25.0227 30.5889 25.3013 30.2701C25.5798 29.9514 25.9126 29.6978 26.2801 29.5244C26.6477 29.3509 27.0426 29.2609 27.4417 29.2598C27.8016 29.2366 28.1618 29.3 28.4978 29.4457C28.8338 29.5915 29.1377 29.8162 29.3889 30.1046C29.64 30.393 29.8326 30.7383 29.9534 31.117C30.0743 31.4958 30.1206 31.8991 30.0892 32.2996C30.0733 32.9478 29.8712 33.5732 29.5125 34.0836C29.1539 34.594 28.6577 34.9625 28.097 35.1348L27.232 35.5174C26.3851 35.7449 25.6457 36.3188 25.1603 37.1253C24.6748 37.9319 24.4787 38.9123 24.6107 39.8724L24.6369 40.8928ZM25.8165 47.2088C26.0498 47.2181 26.2825 47.175 26.5007 47.0823C26.7188 46.9896 26.9181 46.849 27.0868 46.6689C27.2554 46.4888 27.3899 46.2729 27.4824 46.0338C27.5749 45.7947 27.6234 45.5374 27.6252 45.2771C27.6231 45.017 27.5743 44.7599 27.4817 44.5212C27.3891 44.2824 27.2545 44.0668 27.0859 43.887C26.9173 43.7072 26.7181 43.5668 26.5001 43.4743C26.2821 43.3817 26.0496 43.3388 25.8165 43.348C25.5834 43.3388 25.3509 43.3817 25.1329 43.4743C24.9149 43.5668 24.7157 43.7072 24.5471 43.887C24.3785 44.0668 24.2439 44.2824 24.1513 44.5212C24.0587 44.7599 24.0099 45.017 24.0078 45.2771C24.0096 45.5374 24.0581 45.7947 24.1506 46.0338C24.2431 46.2729 24.3776 46.4888 24.5463 46.6689C24.7149 46.849 24.9142 46.9896 25.1323 47.0823C25.3505 47.175 25.5832 47.2181 25.8165 47.2088Z" fill="white"/>
<g filter="url(#filter1_d_2579_16927)">
<path d="M63.6916 70.415H224.543C226.123 70.415 227.638 71.1149 228.755 72.3607C229.872 73.6065 230.5 75.2961 230.5 77.0579V110.272C230.5 112.034 229.872 113.724 228.755 114.969C227.638 116.215 226.123 116.915 224.543 116.915H63.6916C62.1116 116.915 60.5963 116.215 59.479 114.969C58.3618 113.724 57.7341 112.034 57.7341 110.272V77.0579C57.7341 75.2961 58.3618 73.6065 59.479 72.3607C60.5963 71.1149 62.1116 70.415 63.6916 70.415V70.415Z" fill="white"/>
</g>
<path d="M139.947 81.0435H108.968C106.994 81.0435 105.394 82.8279 105.394 85.0292C105.394 87.2304 106.994 89.0149 108.968 89.0149H139.947C141.921 89.0149 143.521 87.2304 143.521 85.0292C143.521 82.8279 141.921 81.0435 139.947 81.0435Z" fill="#04BD4B" fill-opacity="0.2"/>
<path d="M161.394 98.3149H108.968C106.994 98.3149 105.394 100.099 105.394 102.301C105.394 104.502 106.994 106.286 108.968 106.286H161.394C163.368 106.286 164.968 104.502 164.968 102.301C164.968 100.099 163.368 98.3149 161.394 98.3149Z" fill="#04BD4B" fill-opacity="0.1"/>
<path d="M89.9043 74.4004H67.266C63.9758 74.4004 61.3086 77.3745 61.3086 81.0432V106.286C61.3086 109.955 63.9758 112.929 67.266 112.929H89.9043C93.1945 112.929 95.8618 109.955 95.8618 106.286V81.0432C95.8618 77.3745 93.1945 74.4004 89.9043 74.4004Z" fill="#04BD4B"/>
<path d="M75.8708 98.0222H78.2538L78.28 96.9992C78.28 95.6547 79.0402 95.3039 80.1149 94.924C81.193 94.582 82.1419 93.858 82.8182 92.8613C83.4944 91.8646 83.8613 90.6495 83.8633 89.3998C83.8869 88.6367 83.7682 87.8765 83.5147 87.1672C83.2612 86.458 82.8784 85.8151 82.3905 85.2794C81.9026 84.7436 81.3203 84.3266 80.6805 84.0548C80.0406 83.783 79.3571 83.6622 78.6732 83.7002C77.9505 83.6826 77.232 83.8289 76.5615 84.1302C75.891 84.4316 75.2824 84.8816 74.7726 85.4531C74.2627 86.0246 73.8623 86.7056 73.5956 87.4548C73.3289 88.204 73.2014 89.0058 73.2209 89.8116H75.6849C75.6756 89.3667 75.746 88.9242 75.892 88.51C76.038 88.0958 76.2566 87.7183 76.5352 87.3995C76.8137 87.0808 77.1465 86.8272 77.514 86.6537C77.8816 86.4803 78.2765 86.3903 78.6756 86.3892C79.0355 86.3659 79.3957 86.4294 79.7317 86.5751C80.0677 86.7209 80.3716 86.9456 80.6228 87.234C80.8739 87.5224 81.0665 87.8677 81.1873 88.2464C81.3082 88.6252 81.3545 89.0285 81.3231 89.429C81.3072 90.0772 81.1051 90.7026 80.7464 91.213C80.3877 91.7234 79.8915 92.0919 79.3309 92.2642L78.4659 92.6468C77.619 92.8743 76.8796 93.4482 76.3941 94.2547C75.9087 95.0613 75.7126 96.0417 75.8446 97.0018L75.8708 98.0222ZM77.0504 104.338C77.2837 104.347 77.5164 104.304 77.7346 104.212C77.9527 104.119 78.152 103.978 78.3206 103.798C78.4893 103.618 78.6238 103.402 78.7163 103.163C78.8087 102.924 78.8573 102.667 78.8591 102.406C78.857 102.146 78.8082 101.889 78.7156 101.651C78.623 101.412 78.4884 101.196 78.3198 101.016C78.1512 100.837 77.952 100.696 77.734 100.604C77.516 100.511 77.2835 100.468 77.0504 100.477C76.8172 100.468 76.5848 100.511 76.3668 100.604C76.1488 100.696 75.9496 100.837 75.781 101.016C75.6124 101.196 75.4778 101.412 75.3852 101.651C75.2926 101.889 75.2438 102.146 75.2417 102.406C75.2435 102.667 75.292 102.924 75.3845 103.163C75.477 103.402 75.6115 103.618 75.7801 103.798C75.9488 103.978 76.1481 104.119 76.3662 104.212C76.5844 104.304 76.817 104.347 77.0504 104.338Z" fill="white"/>
<g filter="url(#filter2_d_2579_16927)">
<path d="M12.4574 127.543H173.309C174.889 127.543 176.404 128.243 177.521 129.489C178.638 130.734 179.266 132.424 179.266 134.186V167.4C179.266 169.162 178.638 170.852 177.521 172.097C176.404 173.343 174.889 174.043 173.309 174.043H12.4574C10.8774 174.043 9.36213 173.343 8.2449 172.097C7.12766 170.852 6.5 169.162 6.5 167.4V134.186C6.5 132.424 7.12766 130.734 8.2449 129.489C9.36213 128.243 10.8774 127.543 12.4574 127.543V127.543Z" fill="white"/>
</g>
<path d="M88.7129 138.171H57.7341C55.76 138.171 54.1597 139.956 54.1597 142.157C54.1597 144.358 55.76 146.143 57.7341 146.143H88.7129C90.687 146.143 92.2873 144.358 92.2873 142.157C92.2873 139.956 90.687 138.171 88.7129 138.171Z" fill="#04BD4B" fill-opacity="0.2"/>
<path d="M110.16 155.443H57.7341C55.76 155.443 54.1597 157.227 54.1597 159.429C54.1597 161.63 55.76 163.414 57.7341 163.414H110.16C112.134 163.414 113.734 161.63 113.734 159.429C113.734 157.227 112.134 155.443 110.16 155.443Z" fill="#04BD4B" fill-opacity="0.1"/>
<path d="M38.6702 131.529H16.0319C12.7417 131.529 10.0745 134.503 10.0745 138.172V163.415C10.0745 167.083 12.7417 170.057 16.0319 170.057H38.6702C41.9604 170.057 44.6277 167.083 44.6277 163.415V138.172C44.6277 134.503 41.9604 131.529 38.6702 131.529Z" fill="#04BD4B"/>
<path d="M24.6369 155.15H27.0199L27.0461 154.127C27.0461 152.783 27.8063 152.432 28.881 152.052C29.9591 151.71 30.908 150.986 31.5843 149.989C32.2606 148.993 32.6274 147.777 32.6294 146.528C32.653 145.765 32.5343 145.004 32.2808 144.295C32.0273 143.586 31.6445 142.943 31.1566 142.407C30.6688 141.872 30.0865 141.455 29.4466 141.183C28.8067 140.911 28.1232 140.79 27.4393 140.828C26.7166 140.811 25.9982 140.957 25.3277 141.258C24.6571 141.559 24.0485 142.01 23.5387 142.581C23.0288 143.152 22.6284 143.833 22.3617 144.583C22.095 145.332 21.9675 146.134 21.9871 146.94H24.4511C24.4417 146.495 24.5121 146.052 24.6581 145.638C24.8041 145.224 25.0227 144.846 25.3013 144.527C25.5798 144.209 25.9126 143.955 26.2801 143.782C26.6477 143.608 27.0426 143.518 27.4417 143.517C27.8016 143.494 28.1618 143.557 28.4978 143.703C28.8338 143.849 29.1377 144.074 29.3889 144.362C29.64 144.65 29.8326 144.996 29.9534 145.374C30.0743 145.753 30.1206 146.156 30.0892 146.557C30.0733 147.205 29.8712 147.83 29.5125 148.341C29.1539 148.851 28.6577 149.22 28.097 149.392L27.232 149.775C26.3851 150.002 25.6457 150.576 25.1603 151.383C24.6748 152.189 24.4787 153.17 24.6107 154.13L24.6369 155.15ZM25.8165 161.466C26.0498 161.475 26.2825 161.432 26.5007 161.34C26.7188 161.247 26.9181 161.106 27.0868 160.926C27.2554 160.746 27.3899 160.53 27.4824 160.291C27.5749 160.052 27.6234 159.795 27.6252 159.534C27.6231 159.274 27.5743 159.017 27.4817 158.778C27.3891 158.54 27.2545 158.324 27.0859 158.144C26.9173 157.964 26.7181 157.824 26.5001 157.732C26.2821 157.639 26.0496 157.596 25.8165 157.605C25.5834 157.596 25.3509 157.639 25.1329 157.732C24.9149 157.824 24.7157 157.964 24.5471 158.144C24.3785 158.324 24.2439 158.54 24.1513 158.778C24.0587 159.017 24.0099 159.274 24.0078 159.534C24.0096 159.795 24.0581 160.052 24.1506 160.291C24.2431 160.53 24.3776 160.746 24.5463 160.926C24.7149 161.106 24.9142 161.247 25.1323 161.34C25.3505 161.432 25.5832 161.475 25.8165 161.466Z" fill="white"/>
<defs>
<filter id="filter0_d_2579_16927" x="0.5" y="10.2856" width="184.766" height="58.5" filterUnits="userSpaceOnUse" color-interpolation-filters="sRGB">
<feFlood flood-opacity="0" result="BackgroundImageFix"/>
<feColorMatrix in="SourceAlpha" type="matrix" values="0 0 0 0 0 0 0 0 0 0 0 0 0 0 0 0 0 0 127 0" result="hardAlpha"/>
<feOffset dy="3"/>
<feGaussianBlur stdDeviation="3"/>
<feColorMatrix type="matrix" values="0 0 0 0 0 0 0 0 0 0 0 0 0 0 0 0 0 0 0.161 0"/>
<feBlend mode="normal" in2="BackgroundImageFix" result="effect1_dropShadow_2579_16927"/>
<feBlend mode="normal" in="SourceGraphic" in2="effect1_dropShadow_2579_16927" result="shape"/>
</filter>
<filter id="filter1_d_2579_16927" x="51.7341" y="67.415" width="184.766" height="58.5" filterUnits="userSpaceOnUse" color-interpolation-filters="sRGB">
<feFlood flood-opacity="0" result="BackgroundImageFix"/>
<feColorMatrix in="SourceAlpha" type="matrix" values="0 0 0 0 0 0 0 0 0 0 0 0 0 0 0 0 0 0 127 0" result="hardAlpha"/>
<feOffset dy="3"/>
<feGaussianBlur stdDeviation="3"/>
<feColorMatrix type="matrix" values="0 0 0 0 0 0 0 0 0 0 0 0 0 0 0 0 0 0 0.161 0"/>
<feBlend mode="normal" in2="BackgroundImageFix" result="effect1_dropShadow_2579_16927"/>
<feBlend mode="normal" in="SourceGraphic" in2="effect1_dropShadow_2579_16927" result="shape"/>
</filter>
<filter id="filter2_d_2579_16927" x="0.5" y="124.543" width="184.766" height="58.5" filterUnits="userSpaceOnUse" color-interpolation-filters="sRGB">
<feFlood flood-opacity="0" result="BackgroundImageFix"/>
<feColorMatrix in="SourceAlpha" type="matrix" values="0 0 0 0 0 0 0 0 0 0 0 0 0 0 0 0 0 0 127 0" result="hardAlpha"/>
<feOffset dy="3"/>
<feGaussianBlur stdDeviation="3"/>
<feColorMatrix type="matrix" values="0 0 0 0 0 0 0 0 0 0 0 0 0 0 0 0 0 0 0.161 0"/>
<feBlend mode="normal" in2="BackgroundImageFix" result="effect1_dropShadow_2579_16927"/>
<feBlend mode="normal" in="SourceGraphic" in2="effect1_dropShadow_2579_16927" result="shape"/>
</filter>
<linearGradient id="paint0_linear_2579_16927" x1="120.883" y1="0" x2="120.883" y2="186" gradientUnits="userSpaceOnUse">
<stop offset="1" stop-color="#66ACDC" stop-opacity="0.3"/>
</linearGradient>
</defs>
</svg>
