<svg width="232" height="150" viewBox="0 0 232 150" fill="none" xmlns="http://www.w3.org/2000/svg">
<path d="M168.592 1.84128L9.66805 33.7667C4.60468 34.7838 1.34712 39.6038 2.39211 44.5323L22.8618 141.076C23.9068 146.004 28.8586 149.175 33.922 148.158L192.846 116.232C197.909 115.215 201.167 110.395 200.122 105.467L179.652 8.92348C178.607 3.99493 173.655 0.82412 168.592 1.84128Z" fill="#04BD4B"/>
<path d="M163.927 13.4319L145.624 17.1088C142.586 17.7191 140.631 20.6111 141.258 23.5682L145.036 41.3843C145.663 44.3414 148.634 46.2439 151.672 45.6336L169.975 41.9567C173.013 41.3464 174.968 38.4545 174.341 35.4973L170.564 17.6813C169.937 14.7241 166.965 12.8217 163.927 13.4319Z" fill="white"/>
<path d="M90.6672 88.6353L28.909 101.042C28.7064 101.082 28.5761 101.275 28.6179 101.472L30.4864 110.285C30.5282 110.482 30.7262 110.609 30.9288 110.568L92.687 98.1616C92.8895 98.1209 93.0198 97.9281 92.978 97.731L91.1096 88.9186C91.0678 88.7215 90.8697 88.5946 90.6672 88.6353Z" fill="white"/>
<path d="M120.988 101.722L32.8089 119.436C32.6063 119.477 32.476 119.67 32.5178 119.867L34.3863 128.679C34.4281 128.876 34.6261 129.003 34.8287 128.962L123.007 111.249C123.21 111.208 123.34 111.015 123.298 110.818L121.43 102.006C121.388 101.809 121.19 101.682 120.988 101.722Z" fill="white"/>
<path d="M197.834 141.271C212.561 141.271 224.5 129.65 224.5 115.314C224.5 100.979 212.561 89.3584 197.834 89.3584C183.107 89.3584 171.168 100.979 171.168 115.314C171.168 129.65 183.107 141.271 197.834 141.271Z" fill="#04BD4B" stroke="white" stroke-width="15" stroke-miterlimit="10"/>
<path d="M208.107 113.139H200.513C200.455 113.139 200.397 113.128 200.342 113.106C200.288 113.084 200.239 113.052 200.197 113.012C200.156 112.971 200.123 112.923 200.101 112.871C200.078 112.818 200.067 112.761 200.067 112.704V105.313C200.067 104.737 199.831 104.184 199.413 103.776C198.994 103.369 198.426 103.14 197.833 103.14C197.241 103.14 196.673 103.369 196.254 103.776C195.835 104.184 195.6 104.737 195.6 105.313V112.704C195.6 112.761 195.589 112.818 195.566 112.871C195.544 112.923 195.511 112.971 195.469 113.012C195.428 113.052 195.379 113.084 195.324 113.106C195.27 113.128 195.212 113.139 195.153 113.139H187.561C186.972 113.144 186.41 113.376 185.995 113.783C185.581 114.19 185.348 114.74 185.348 115.313C185.348 115.886 185.581 116.436 185.995 116.843C186.41 117.25 186.972 117.481 187.561 117.487H195.154C195.273 117.487 195.386 117.532 195.47 117.614C195.554 117.696 195.601 117.806 195.601 117.921V125.312C195.601 125.889 195.836 126.442 196.255 126.849C196.674 127.257 197.242 127.486 197.834 127.486C198.426 127.486 198.994 127.257 199.413 126.849C199.832 126.442 200.067 125.889 200.067 125.312V117.921C200.067 117.806 200.114 117.696 200.198 117.614C200.282 117.532 200.396 117.487 200.514 117.487H208.107C208.696 117.481 209.259 117.25 209.673 116.843C210.088 116.436 210.32 115.886 210.32 115.313C210.32 114.74 210.088 114.19 209.673 113.783C209.259 113.376 208.696 113.144 208.107 113.139Z" fill="white"/>
</svg>
