<svg width="33" height="32" viewBox="0 0 33 32" fill="none" xmlns="http://www.w3.org/2000/svg">
<path d="M24.4366 2.07178L30.0006 7.87178V29.9278H9.21558V29.9998H30.0716V7.94478L24.4366 2.07178Z" fill="#909090"/>
<path d="M24.3678 2H9.14478V29.928H30.0008V7.873L24.3678 2Z" fill="#B0B0B0"/>
<path d="M8.99156 3.5H2.60156V10.327H22.7016V3.5H8.99156Z" fill="#7A7B7C"/>
<path d="M22.8087 10.2109H2.73169V3.37891H22.8087V10.2109Z" fill="#DD2025"/>
<path d="M9.38879 4.53418H8.08179V9.33418H9.10979V7.71518L9.33679 7.72818C9.55736 7.72439 9.77586 7.68488 9.98379 7.61118C10.1661 7.54848 10.3338 7.44949 10.4768 7.32018C10.6223 7.197 10.737 7.04154 10.8118 6.86618C10.9121 6.57468 10.9479 6.26488 10.9168 5.95818C10.9105 5.73909 10.8721 5.52211 10.8028 5.31418C10.7397 5.16409 10.646 5.02878 10.5277 4.91688C10.4094 4.80497 10.2691 4.71891 10.1158 4.66418C9.9832 4.61618 9.8462 4.58135 9.70679 4.56018C9.60121 4.5439 9.49461 4.53521 9.38779 4.53418M9.19879 6.82818H9.10979V5.34818H9.30279C9.38797 5.34204 9.47344 5.35512 9.55289 5.38645C9.63233 5.41778 9.70373 5.46656 9.76179 5.52918C9.88211 5.6902 9.94638 5.88619 9.94479 6.08718C9.94479 6.33318 9.94479 6.55618 9.72279 6.71318C9.56285 6.80115 9.38081 6.84175 9.19879 6.82818ZM12.8698 4.52118C12.7588 4.52118 12.6508 4.52918 12.5748 4.53218L12.3368 4.53818H11.5568V9.33818H12.4748C12.8256 9.3478 13.1749 9.28834 13.5028 9.16318C13.7667 9.05851 14.0004 8.88976 14.1828 8.67218C14.3601 8.45264 14.4874 8.19702 14.5558 7.92318C14.6343 7.61305 14.6727 7.2941 14.6698 6.97418C14.6892 6.59634 14.6599 6.21757 14.5828 5.84718C14.5096 5.57455 14.3725 5.32328 14.1828 5.11418C14.034 4.94535 13.8518 4.80915 13.6478 4.71418C13.4726 4.6331 13.2882 4.57334 13.0988 4.53618C13.0234 4.52374 12.9471 4.51805 12.8708 4.51918M12.6888 8.45618H12.5888V5.39218H12.6018C12.8079 5.36846 13.0165 5.40566 13.2018 5.49918C13.3375 5.60751 13.448 5.74398 13.5258 5.89918C13.6097 6.06252 13.6581 6.24179 13.6678 6.42518C13.6768 6.64518 13.6678 6.82518 13.6678 6.97418C13.6719 7.14582 13.6608 7.31748 13.6348 7.48718C13.604 7.66141 13.547 7.82998 13.4658 7.98718C13.3739 8.13334 13.2497 8.25649 13.1028 8.34718C12.9794 8.42698 12.8333 8.46421 12.6868 8.45318M17.7668 4.53818H15.3368V9.33818H16.3648V7.43418H17.6648V6.54218H16.3648V5.43018H17.7648V4.53818" fill="#464648"/>
<path d="M22.1176 20.255C22.1176 20.255 25.3056 19.677 25.3056 20.766C25.3056 21.855 23.3306 21.412 22.1176 20.255ZM19.7606 20.338C19.2541 20.4499 18.7605 20.6138 18.2876 20.827L18.6876 19.927C19.0876 19.027 19.5026 17.8 19.5026 17.8C19.9799 18.6033 20.5353 19.3577 21.1606 20.052C20.689 20.1223 20.2217 20.2185 19.7606 20.34V20.338ZM18.4986 13.838C18.4986 12.889 18.8056 12.63 19.0446 12.63C19.2836 12.63 19.5526 12.745 19.5616 13.569C19.4837 14.3976 19.3103 15.2143 19.0446 16.003C18.6807 15.3408 18.4924 14.5966 18.4976 13.841L18.4986 13.838ZM13.8496 24.354C12.8716 23.769 15.9006 21.968 16.4496 21.91C16.4466 21.911 14.8736 24.966 13.8496 24.354ZM26.2366 20.895C26.2266 20.795 26.1366 19.688 24.1666 19.735C23.3455 19.7218 22.5247 19.7797 21.7136 19.908C20.9279 19.1164 20.2512 18.2235 19.7016 17.253C20.0479 16.2524 20.2574 15.2097 20.3246 14.153C20.2956 12.953 20.0086 12.265 19.0886 12.275C18.1686 12.285 18.0346 13.09 18.1556 14.288C18.2741 15.0931 18.4977 15.8791 18.8206 16.626C18.8206 16.626 18.3956 17.949 17.8336 19.265C17.2716 20.581 16.8876 21.271 16.8876 21.271C15.9103 21.5891 14.9903 22.0618 14.1626 22.671C13.3386 23.438 13.0036 24.027 13.4376 24.616C13.8116 25.124 15.1206 25.239 16.2906 23.706C16.9123 22.9142 17.4802 22.0817 17.9906 21.214C17.9906 21.214 19.7746 20.725 20.3296 20.591C20.8846 20.457 21.5556 20.351 21.5556 20.351C21.5556 20.351 23.1846 21.99 24.7556 21.932C26.3266 21.874 26.2506 20.993 26.2406 20.897" fill="#DD2025"/>
<path d="M24.2908 2.07715V7.95015H29.9238L24.2908 2.07715Z" fill="#909090"/>
<path d="M24.3677 2V7.873H30.0007L24.3677 2Z" fill="#F4F4F4"/>
<path d="M9.31164 4.45704H8.00464V9.25704H9.03664V7.63904L9.26464 7.65204C9.48521 7.64824 9.70371 7.60873 9.91164 7.53504C10.0939 7.47231 10.2616 7.37332 10.4046 7.24404C10.549 7.12053 10.6627 6.96509 10.7366 6.79004C10.8369 6.49853 10.8728 6.18874 10.8416 5.88204C10.8354 5.66294 10.797 5.44596 10.7276 5.23804C10.6645 5.08794 10.5708 4.95264 10.4526 4.84073C10.3343 4.72882 10.194 4.64276 10.0406 4.58804C9.90744 4.53957 9.76977 4.5044 9.62964 4.48304C9.52406 4.46675 9.41746 4.45806 9.31064 4.45704M9.12164 6.75104H9.03264V5.27104H9.22664C9.31182 5.26489 9.39729 5.27797 9.47674 5.3093C9.55619 5.34063 9.62758 5.38941 9.68564 5.45204C9.80596 5.61305 9.87023 5.80904 9.86864 6.01004C9.86864 6.25604 9.86864 6.47904 9.64664 6.63604C9.48671 6.724 9.30466 6.76361 9.12264 6.75004M12.7926 4.44404C12.6816 4.44404 12.5736 4.45204 12.4976 4.45504L12.2626 4.46104H11.4826V9.26104H12.4006C12.7515 9.27065 13.1008 9.21119 13.4286 9.08604C13.6926 8.98136 13.9262 8.81262 14.1086 8.59504C14.286 8.37549 14.4133 8.11987 14.4816 7.84604C14.5602 7.53591 14.5985 7.21695 14.5956 6.89704C14.615 6.51919 14.5858 6.14042 14.5086 5.77004C14.4354 5.4974 14.2983 5.24613 14.1086 5.03704C13.9598 4.8682 13.7777 4.73201 13.5736 4.63704C13.3984 4.55595 13.2141 4.49619 13.0246 4.45904C12.9493 4.44659 12.873 4.4409 12.7966 4.44204M12.6146 8.37904H12.5146V5.31504H12.5276C12.7338 5.29132 12.9424 5.32851 13.1276 5.42204C13.2633 5.53036 13.3738 5.66684 13.4516 5.82204C13.5356 5.98537 13.584 6.16464 13.5936 6.34804C13.6026 6.56804 13.5936 6.74804 13.5936 6.89704C13.5977 7.06867 13.5867 7.24034 13.5606 7.41004C13.5298 7.58427 13.4728 7.75284 13.3916 7.91004C13.2997 8.05619 13.1756 8.17934 13.0286 8.27004C12.9053 8.34983 12.7592 8.38706 12.6126 8.37604M17.6896 4.46104H15.2596V9.26104H16.2876V7.35704H17.5876V6.46504H16.2876V5.35304H17.6876V4.46104" fill="white"/>
</svg>
