<svg width="19" height="19" viewBox="0 0 19 19" fill="none" xmlns="http://www.w3.org/2000/svg">
<path fill-rule="evenodd" clip-rule="evenodd" d="M14.3189 12.933C15.5659 11.3254 16.1536 9.30303 15.9624 7.27746C15.7713 5.25189 14.8156 3.37522 13.2899 2.02925C11.7641 0.683283 9.78295 -0.030883 7.74935 0.0320451C5.71575 0.0949732 3.78251 0.930268 2.34292 2.368C0.902074 3.80672 0.0640475 5.74072 -0.000384383 7.77586C-0.0648162 9.81101 0.649196 11.7941 1.99615 13.3211C3.3431 14.8481 5.22162 15.804 7.24889 15.9941C9.27617 16.1841 11.2996 15.594 12.9069 14.344L12.9499 14.389L17.1919 18.632C17.2848 18.7249 17.3951 18.7986 17.5165 18.8489C17.6379 18.8992 17.768 18.9251 17.8994 18.9251C18.0308 18.9251 18.1609 18.8992 18.2823 18.8489C18.4037 18.7986 18.514 18.7249 18.6069 18.632C18.6998 18.5391 18.7735 18.4288 18.8238 18.3074C18.8741 18.186 18.9 18.0559 18.9 17.9245C18.9 17.7931 18.8741 17.663 18.8238 17.5416C18.7735 17.4202 18.6998 17.3099 18.6069 17.217L14.3639 12.975C14.3493 12.9606 14.3343 12.9466 14.3189 12.933ZM12.2429 3.783C12.8075 4.33848 13.2566 5.00025 13.5641 5.73013C13.8717 6.46002 14.0317 7.24358 14.0349 8.03562C14.0381 8.82765 13.8845 9.61249 13.5829 10.3449C13.2813 11.0772 12.8377 11.7426 12.2776 12.3027C11.7176 12.8627 11.0521 13.3064 10.3198 13.608C9.58741 13.9096 8.80257 14.0632 8.01054 14.06C7.2185 14.0568 6.43494 13.8968 5.70505 13.5892C4.97517 13.2816 4.3134 12.8326 3.75792 12.268C2.64784 11.1397 2.02857 9.61844 2.03502 8.03562C2.04146 6.4528 2.67309 4.93664 3.79233 3.81741C4.91156 2.69817 6.42772 2.06654 8.01054 2.0601C9.59336 2.05365 11.1146 2.67292 12.2429 3.783Z" fill="#6A6B6C"/>
</svg>
